<svg width="342" height="85" viewBox="0 0 342 85" fill="none" xmlns="http://www.w3.org/2000/svg">
<path d="M63.8545 44C64.8679 41.2533 65.3745 38.6667 65.3745 36.24C65.3745 34.88 65.2012 33.72 64.8545 32.76C64.3212 31.3733 63.4945 30.68 62.3745 30.68C61.1745 30.68 59.8945 31.4533 58.5345 33C57.1745 34.5467 56.0279 36.56 55.0945 39.04C54.0812 41.7867 53.5745 44.3733 53.5745 46.8C53.5745 48.16 53.7479 49.32 54.0945 50.28C54.6279 51.6667 55.4545 52.36 56.5745 52.36C57.7745 52.36 59.0412 51.5867 60.3745 50.04C61.7345 48.4933 62.8945 46.48 63.8545 44ZM49.8545 28.88C50.3079 28.9333 50.7612 28.96 51.2145 28.96C52.7612 28.96 53.9879 28.6267 54.8945 27.96C57.2145 26.12 59.5479 25.2 61.8945 25.2C63.2812 25.2 64.5879 25.5333 65.8145 26.2C67.5745 27.16 68.9345 28.6667 69.8945 30.72C70.8812 32.7733 71.3745 35.1067 71.3745 37.72C71.3745 40.8133 70.7079 43.8533 69.3745 46.84C67.9612 50.04 66.0679 52.6 63.6945 54.52C61.3212 56.44 58.9079 57.4 56.4545 57.4C55.0679 57.4 53.7745 57.0667 52.5745 56.4C50.8145 55.44 49.4412 53.9333 48.4545 51.88C47.4945 49.8267 47.0145 47.4933 47.0145 44.88C47.0145 41.7867 47.6812 38.7467 49.0145 35.76L49.8945 34.24C50.2945 34.3467 50.6812 34.4 51.0545 34.4C53.1079 34.4 54.7079 33.2533 55.8545 30.96C54.8145 32.1867 53.0145 32.8 50.4545 32.8C49.9479 32.8 49.4145 32.7733 48.8545 32.72L49.8545 28.88ZM76.5527 51.6C76.7127 51.7333 76.9393 51.8 77.2327 51.8C77.7127 51.8 78.286 51.64 78.9527 51.32C79.7527 50.92 80.406 50.12 80.9127 48.92L83.9927 37.12H89.5127L84.5927 56.16H79.0327L79.3527 55C77.7527 55.8533 76.126 56.28 74.4727 56.28C74.126 56.28 73.8327 56.2667 73.5927 56.24C71.406 55.68 70.3127 54.08 70.3127 51.44C70.3127 50.9867 70.3527 50.56 70.4327 50.16L73.8727 37.12H79.3927L75.9527 50.16C75.926 50.2933 75.9127 50.4267 75.9127 50.56C75.9127 51.0133 76.126 51.36 76.5527 51.6ZM102.904 37.36L101.664 42.56C100.97 42.16 100.317 41.96 99.7036 41.96C98.2903 41.96 97.1836 42.9333 96.3836 44.88L93.3836 56H87.8636L92.9436 37.12H98.4636L98.1436 38.32C99.4503 37.4933 100.637 37.08 101.704 37.08C102.184 37.08 102.584 37.1733 102.904 37.36Z" fill="black"/>
<path d="M130.172 36.96L121.332 53.24L121.012 37.48L116.172 56H110.652L116.972 31.76C116.065 32.2933 114.999 32.56 113.772 32.56C113.372 32.56 112.959 32.5333 112.532 32.48L113.532 28.64C113.879 28.6933 114.212 28.72 114.532 28.72C116.265 28.72 117.585 27.8133 118.492 26H125.052L125.332 38L131.892 26H138.572L130.732 56H125.212L130.172 36.96ZM140.909 49.68C141.096 50.8267 141.482 51.5333 142.069 51.8C142.229 51.9067 142.429 52.0133 142.669 52.12C144.589 52.1467 146.256 51.44 147.669 50L146.269 55.36C145.149 56.08 143.949 56.44 142.669 56.44C141.549 56.44 140.429 56.16 139.309 55.6C136.856 54.4 135.629 52.1067 135.629 48.72C135.629 46.9067 136.056 45.12 136.909 43.36C137.842 41.44 139.136 39.9067 140.789 38.76C142.442 37.5867 144.109 37 145.789 37C146.722 37 147.589 37.1867 148.389 37.56C150.496 38.28 151.549 39.88 151.549 42.36C151.549 42.8133 151.509 43.2267 151.429 43.6C151.056 45.28 150.042 46.76 148.389 48.04C146.736 49.32 144.936 49.96 142.989 49.96C142.269 49.96 141.576 49.8667 140.909 49.68ZM141.229 46.2C141.736 46.3067 142.242 46.36 142.749 46.36C144.082 46.36 145.176 46.04 146.029 45.4C146.909 44.6267 147.349 43.8533 147.349 43.08C147.349 42.6533 147.189 42.24 146.869 41.84C146.549 41.44 146.176 41.24 145.749 41.24C144.816 41.24 143.869 41.8533 142.909 43.08C142.109 44.0933 141.549 45.1333 141.229 46.2ZM156.197 56H150.677L154.517 41.2H151.997L153.077 37.08H155.597L157.757 28.88H163.277L161.157 37.08H164.637L163.517 41.2H160.077L156.197 56ZM178.55 58.92C179.27 58.9467 179.83 58.6933 180.23 58.16L181.47 61.76C180.216 63.0933 178.416 63.8133 176.07 63.92C174.523 63.92 173.243 63.3733 172.23 62.28C171.403 61.3733 170.976 60.4133 170.95 59.4C170.95 59.6133 171.07 58.5067 171.31 56.08L174.63 43.28C174.656 43.1467 174.67 43.0133 174.67 42.88C174.67 42.4 174.47 42.04 174.07 41.8C173.883 41.6667 173.656 41.6 173.39 41.6C172.936 41.6 172.416 41.8133 171.83 42.24C171.216 42.7467 170.83 43.0933 170.67 43.28C170.27 43.6533 169.963 44.0667 169.75 44.52L166.71 56.04H161.19L168.63 27.68H174.19L171.39 38.32C172.856 37.4667 174.296 37.04 175.71 37.04C176.216 37.04 176.656 37.0933 177.03 37.2C179.19 38.1867 180.27 39.8267 180.27 42.12C180.27 42.5467 180.23 42.9333 180.15 43.28L176.83 56.08C176.803 57.2 176.963 57.9733 177.31 58.4C177.55 58.6933 177.963 58.8667 178.55 58.92ZM184.977 55.8C182.47 54.5733 181.217 52.2267 181.217 48.76C181.217 46.8933 181.657 45.0667 182.537 43.28C183.47 41.3333 184.737 39.7867 186.337 38.64C187.937 37.4667 189.563 36.88 191.217 36.88C192.177 36.88 193.07 37.0933 193.897 37.52C196.403 38.72 197.657 41.0533 197.657 44.52C197.657 46.3867 197.217 48.2133 196.337 50C195.403 51.9467 194.137 53.5067 192.537 54.68C190.937 55.8267 189.31 56.4 187.657 56.4C186.697 56.4 185.803 56.2 184.977 55.8ZM191.257 41.2C190.643 41.2 189.963 41.5867 189.217 42.36C188.47 43.1067 187.83 44.12 187.297 45.4C186.737 46.76 186.457 48.0533 186.457 49.28C186.457 51.04 186.963 51.92 187.977 51.92C188.59 51.92 189.27 51.5467 190.017 50.8C190.763 50.0533 191.403 49.0267 191.937 47.72C192.497 46.3867 192.777 45.1067 192.777 43.88C192.777 42.0933 192.27 41.2 191.257 41.2ZM200.815 55.88C198.709 54.9733 197.655 52.8533 197.655 49.52C197.655 47.68 198.042 45.84 198.815 44C199.722 41.8933 200.922 40.2 202.415 38.92C203.935 37.6133 205.442 36.96 206.935 36.96C208.455 36.96 209.655 37.6267 210.535 38.96L213.535 27.6H219.055L211.615 56H206.055L206.415 54.76C205.082 55.72 203.775 56.2 202.495 56.2C201.909 56.2 201.349 56.0933 200.815 55.88ZM207.175 41.2C205.735 41.2 204.509 42.5467 203.495 45.24C203.042 46.4667 202.815 47.64 202.815 48.76C202.815 50.6267 203.322 51.56 204.335 51.56C205.002 51.56 205.709 51.1467 206.455 50.32C207.202 49.4933 207.815 48.4267 208.295 47.12C208.722 46.0267 208.935 45 208.935 44.04C208.935 42.1467 208.349 41.2 207.175 41.2ZM220.211 55.8C217.704 54.5733 216.451 52.2267 216.451 48.76C216.451 46.8933 216.891 45.0667 217.771 43.28C218.704 41.3333 219.971 39.7867 221.571 38.64C223.171 37.4667 224.798 36.88 226.451 36.88C227.411 36.88 228.304 37.0933 229.131 37.52C231.638 38.72 232.891 41.0533 232.891 44.52C232.891 46.3867 232.451 48.2133 231.571 50C230.638 51.9467 229.371 53.5067 227.771 54.68C226.171 55.8267 224.544 56.4 222.891 56.4C221.931 56.4 221.038 56.2 220.211 55.8ZM226.491 41.2C225.878 41.2 225.198 41.5867 224.451 42.36C223.704 43.1067 223.064 44.12 222.531 45.4C221.971 46.76 221.691 48.0533 221.691 49.28C221.691 51.04 222.198 51.92 223.211 51.92C223.824 51.92 224.504 51.5467 225.251 50.8C225.998 50.0533 226.638 49.0267 227.171 47.72C227.731 46.3867 228.011 45.1067 228.011 43.88C228.011 42.0933 227.504 41.2 226.491 41.2ZM237.69 56.04H232.17L239.61 27.6H245.17L237.69 56.04ZM245.914 55.8C243.408 54.5733 242.154 52.2267 242.154 48.76C242.154 46.8933 242.594 45.0667 243.474 43.28C244.408 41.3333 245.674 39.7867 247.274 38.64C248.874 37.4667 250.501 36.88 252.154 36.88C253.114 36.88 254.008 37.0933 254.834 37.52C257.341 38.72 258.594 41.0533 258.594 44.52C258.594 46.3867 258.154 48.2133 257.274 50C256.341 51.9467 255.074 53.5067 253.474 54.68C251.874 55.8267 250.248 56.4 248.594 56.4C247.634 56.4 246.741 56.2 245.914 55.8ZM252.194 41.2C251.581 41.2 250.901 41.5867 250.154 42.36C249.408 43.1067 248.768 44.12 248.234 45.4C247.674 46.76 247.394 48.0533 247.394 49.28C247.394 51.04 247.901 51.92 248.914 51.92C249.528 51.92 250.208 51.5467 250.954 50.8C251.701 50.0533 252.341 49.0267 252.874 47.72C253.434 46.3867 253.714 45.1067 253.714 43.88C253.714 42.0933 253.208 41.2 252.194 41.2ZM261.913 55.76C259.753 54.8533 258.673 52.76 258.673 49.48C258.673 47.6667 259.073 45.8267 259.873 43.96C260.753 41.8533 261.953 40.1467 263.473 38.84C264.993 37.5333 266.513 36.88 268.033 36.88C269.5 36.88 270.686 37.4667 271.593 38.64L271.993 37.04H277.553L272.553 56C272.286 56.96 272.06 57.64 271.873 58.04C270.966 59.88 269.686 61.36 268.033 62.48C266.406 63.6 264.766 64.16 263.113 64.16C262.153 64.16 261.286 63.9733 260.513 63.6C260.166 63.4133 259.833 63.1067 259.513 62.68C259.193 62.2533 258.9 61.84 258.633 61.44L259.633 57.68C261.766 59.2 262.9 59.96 263.033 59.96C264.046 59.96 264.98 59.4 265.833 58.28C266.42 57.5067 266.806 56.7467 266.993 56L267.313 54.84C266.06 55.6933 264.833 56.12 263.633 56.12C263.02 56.12 262.446 56 261.913 55.76ZM268.953 41.4C268.26 41.4 267.526 41.7467 266.753 42.44C265.873 43.2667 265.18 44.3467 264.673 45.68C264.22 46.9067 263.993 48.04 263.993 49.08C263.993 50.8133 264.473 51.68 265.433 51.68C266.046 51.68 266.713 51.28 267.433 50.48C268.18 49.6533 268.793 48.6 269.273 47.32L269.353 47.12L269.873 45.2C269.953 44.6667 269.993 44.16 269.993 43.68C269.993 42.16 269.646 41.4 268.953 41.4ZM285.211 56C284.064 57.8667 283.291 59.0667 282.891 59.6C282.064 60.6933 281.051 61.6533 279.851 62.48C278.278 63.5733 276.744 64.12 275.251 64.12C272.984 64.0133 271.864 63.2933 271.891 61.96L274.491 58.36C274.518 58.8933 274.904 59.1467 275.651 59.12C276.904 59.0133 278.251 57.9733 279.691 56L277.851 37.04H283.371L284.451 48.16L291.251 37.08H296.771L285.211 56Z" fill="#FD7402"/>
<g filter="url(#filter0_ii)">
<rect x="20.5" y="3.5" width="301" height="78" rx="19.5" stroke="#EEEEEE" stroke-width="7"/>
</g>
<defs>
<filter id="filter0_ii" x="15" y="-2" width="312" height="89" filterUnits="userSpaceOnUse" color-interpolation-filters="sRGB">
<feFlood flood-opacity="0" result="BackgroundImageFix"/>
<feBlend mode="normal" in="SourceGraphic" in2="BackgroundImageFix" result="shape"/>
<feColorMatrix in="SourceAlpha" type="matrix" values="0 0 0 0 0 0 0 0 0 0 0 0 0 0 0 0 0 0 127 0" result="hardAlpha"/>
<feOffset dx="4" dy="4"/>
<feGaussianBlur stdDeviation="1"/>
<feComposite in2="hardAlpha" operator="arithmetic" k2="-1" k3="1"/>
<feColorMatrix type="matrix" values="0 0 0 0 0.305882 0 0 0 0 0.305882 0 0 0 0 0.305882 0 0 0 0.5 0"/>
<feBlend mode="normal" in2="shape" result="effect1_innerShadow"/>
<feColorMatrix in="SourceAlpha" type="matrix" values="0 0 0 0 0 0 0 0 0 0 0 0 0 0 0 0 0 0 127 0" result="hardAlpha"/>
<feOffset dx="-4" dy="-4"/>
<feGaussianBlur stdDeviation="1"/>
<feComposite in2="hardAlpha" operator="arithmetic" k2="-1" k3="1"/>
<feColorMatrix type="matrix" values="0 0 0 0 1 0 0 0 0 1 0 0 0 0 1 0 0 0 0.3 0"/>
<feBlend mode="normal" in2="effect1_innerShadow" result="effect2_innerShadow"/>
</filter>
</defs>
</svg>
