<svg width="1440" height="1014" viewBox="0 0 1440 1014" fill="none" xmlns="http://www.w3.org/2000/svg">
<g filter="url(#filter0_ddddii)">
<path d="M1586.79 643.339C1586.79 799.083 1493 943.339 1308.22 931.339C1219 911.339 1259.36 904 1178.22 819.339C1115.82 772.892 987 761.383 987 681.963C987 536 1091 573.963 1125 451.963C1160.31 325.262 1203 249.963 1308.22 279.339C1525.84 340.095 1586.79 487.595 1586.79 643.339Z" fill="#FD7402"/>
</g>
<g filter="url(#filter1_ddddii)">
<rect x="220.5" y="355.5" width="953" height="135" rx="67.5" stroke="#EEEEEE" stroke-width="7"/>
</g>
<g filter="url(#filter2_ddddii)">
<path fill-rule="evenodd" clip-rule="evenodd" d="M281 244C268.297 244 258 254.297 258 267V286C258 298.703 268.297 309 281 309H320.5H383H445.5H485C497.703 309 508 298.703 508 286V267C508 254.297 497.703 244 485 244H281ZM400.115 335.883C403.854 323.711 395.734 309.5 383 309.5C370.186 309.5 362.119 324.494 366.125 336.666C368.17 342.877 369.444 348.537 370.544 353.417C373.117 364.841 374.73 372 383 372C392.32 372 393.597 365.432 395.854 353.822C396.839 348.759 398.01 342.737 400.115 335.883Z" fill="#EAEAEA"/>
</g>
<g filter="url(#filter3_ddddii)">
<path fill-rule="evenodd" clip-rule="evenodd" d="M485 595C497.703 595 508 584.703 508 572V553C508 540.298 497.703 530 485 530H445.5H383H320.5H281C268.297 530 258 540.298 258 553V572C258 584.703 268.297 595 281 595H485ZM365.885 503.117C362.146 515.289 370.266 529.5 383 529.5C395.814 529.5 403.881 514.506 399.875 502.334C397.83 496.123 396.556 490.464 395.456 485.583C392.883 474.16 391.27 467 383 467C373.68 467 372.403 473.569 370.145 485.179C369.161 490.242 367.99 496.263 365.885 503.117Z" fill="#EAEAEA"/>
</g>
<g filter="url(#filter4_ddddii)">
<path fill-rule="evenodd" clip-rule="evenodd" d="M799 595C811.703 595 822 584.703 822 572V553C822 540.298 811.703 530 799 530H759.5H697H634.5H595C582.297 530 572 540.298 572 553V572C572 584.703 582.297 595 595 595H799ZM679.885 503.117C676.146 515.289 684.266 529.5 697 529.5C709.814 529.5 717.881 514.506 713.875 502.334C711.83 496.123 710.556 490.464 709.456 485.583C706.883 474.16 705.27 467 697 467C687.68 467 686.403 473.569 684.145 485.179C683.161 490.242 681.99 496.263 679.885 503.117Z" fill="#EAEAEA"/>
</g>
<g filter="url(#filter5_ddddii)">
<path fill-rule="evenodd" clip-rule="evenodd" d="M595 249C582.297 249 572 259.297 572 272V291C572 303.703 582.297 314 595 314H634.5H697H759.5H799C811.703 314 822 303.703 822 291V272C822 259.297 811.703 249 799 249H595ZM714.115 340.883C717.854 328.711 709.734 314.5 697 314.5C684.186 314.5 676.119 329.494 680.125 341.666C682.17 347.878 683.444 353.537 684.544 358.417C687.117 369.841 688.73 377 697 377C706.32 377 707.597 370.432 709.855 358.822C710.839 353.759 712.01 347.737 714.115 340.883Z" fill="#EAEAEA"/>
</g>
<g filter="url(#filter6_ddddii)">
<path fill-rule="evenodd" clip-rule="evenodd" d="M909 244C896.297 244 886 254.297 886 267V286C886 298.703 896.297 309 909 309H948.5H1011H1073.5H1113C1125.7 309 1136 298.703 1136 286V267C1136 254.297 1125.7 244 1113 244H909ZM1028.12 335.883C1031.85 323.711 1023.73 309.5 1011 309.5C998.186 309.5 990.119 324.494 994.125 336.666C996.17 342.878 997.444 348.537 998.544 353.417C1001.12 364.841 1002.73 372 1011 372C1020.32 372 1021.6 365.432 1023.85 353.822C1024.84 348.759 1026.01 342.737 1028.12 335.883Z" fill="#EAEAEA"/>
</g>
<g filter="url(#filter7_ddddii)">
<path fill-rule="evenodd" clip-rule="evenodd" d="M1113 595C1125.7 595 1136 584.703 1136 572V553C1136 540.298 1125.7 530 1113 530H1073.5H1011H948.5H909C896.297 530 886 540.298 886 553V572C886 584.703 896.297 595 909 595H1113ZM993.885 503.117C990.146 515.289 998.266 529.5 1011 529.5C1023.81 529.5 1031.88 514.506 1027.87 502.334C1025.83 496.123 1024.56 490.464 1023.46 485.583C1020.88 474.16 1019.27 467 1011 467C1001.68 467 1000.4 473.569 998.145 485.179C997.161 490.242 995.99 496.263 993.885 503.117Z" fill="#EAEAEA"/>
</g>
<g filter="url(#filter8_ddddii)">
<circle cx="383" cy="355" r="4" stroke="#EEEEEE" stroke-width="2"/>
</g>
<g filter="url(#filter9_ddddii)">
<circle cx="697" cy="355" r="4" stroke="#EEEEEE" stroke-width="2"/>
</g>
<g filter="url(#filter10_ddddii)">
<circle cx="1011" cy="355" r="4" stroke="#EEEEEE" stroke-width="2"/>
</g>
<g filter="url(#filter11_ddddii)">
<circle cx="1011" cy="489" r="4" stroke="#EEEEEE" stroke-width="2"/>
</g>
<g filter="url(#filter12_ddddii)">
<circle cx="697" cy="489" r="4" stroke="#EEEEEE" stroke-width="2"/>
</g>
<g filter="url(#filter13_ddddii)">
<circle cx="383" cy="489" r="4" stroke="#EEEEEE" stroke-width="2"/>
</g>
<path d="M321.206 270.82C321.206 271.808 320.946 272.683 320.426 273.446C319.906 274.191 319.204 274.772 318.32 275.188C318.58 275.604 318.866 276.081 319.178 276.618C319.507 277.138 319.837 277.701 320.166 278.308C320.495 278.897 320.816 279.513 321.128 280.154C321.457 280.778 321.761 281.393 322.038 282H319.75C319.23 280.752 318.658 279.556 318.034 278.412C317.427 277.268 316.838 276.341 316.266 275.63C316.162 275.647 316.006 275.656 315.798 275.656C315.607 275.656 315.477 275.656 315.408 275.656H313.588V282H311.43V266.14C311.69 266.071 311.985 266.01 312.314 265.958C312.661 265.906 313.007 265.871 313.354 265.854C313.718 265.819 314.073 265.793 314.42 265.776C314.767 265.759 315.079 265.75 315.356 265.75C317.297 265.75 318.753 266.175 319.724 267.024C320.712 267.873 321.206 269.139 321.206 270.82ZM315.538 267.596C315.139 267.596 314.749 267.605 314.368 267.622C314.004 267.622 313.744 267.639 313.588 267.674V273.888H314.966C315.59 273.888 316.145 273.845 316.63 273.758C317.133 273.671 317.557 273.515 317.904 273.29C318.268 273.047 318.545 272.727 318.736 272.328C318.927 271.912 319.022 271.375 319.022 270.716C319.022 270.092 318.927 269.581 318.736 269.182C318.545 268.783 318.294 268.471 317.982 268.246C317.67 268.003 317.297 267.839 316.864 267.752C316.448 267.648 316.006 267.596 315.538 267.596ZM329.734 269.65C331.363 269.65 332.62 270.161 333.504 271.184C334.388 272.189 334.83 273.723 334.83 275.786V276.54H326.198C326.285 277.788 326.692 278.741 327.42 279.4C328.165 280.041 329.205 280.362 330.54 280.362C331.303 280.362 331.953 280.301 332.49 280.18C333.027 280.059 333.435 279.929 333.712 279.79L333.998 281.61C333.738 281.749 333.27 281.896 332.594 282.052C331.918 282.208 331.155 282.286 330.306 282.286C329.266 282.286 328.347 282.13 327.55 281.818C326.77 281.489 326.12 281.047 325.6 280.492C325.08 279.937 324.69 279.279 324.43 278.516C324.17 277.736 324.04 276.895 324.04 275.994C324.04 274.919 324.205 273.983 324.534 273.186C324.863 272.389 325.297 271.73 325.834 271.21C326.371 270.69 326.978 270.3 327.654 270.04C328.33 269.78 329.023 269.65 329.734 269.65ZM332.646 274.798C332.646 273.775 332.377 272.969 331.84 272.38C331.303 271.773 330.592 271.47 329.708 271.47C329.205 271.47 328.746 271.565 328.33 271.756C327.931 271.947 327.585 272.198 327.29 272.51C326.995 272.822 326.761 273.177 326.588 273.576C326.415 273.975 326.302 274.382 326.25 274.798H332.646ZM339.25 275.994C339.25 276.618 339.311 277.199 339.432 277.736C339.571 278.256 339.77 278.715 340.03 279.114C340.29 279.495 340.619 279.799 341.018 280.024C341.434 280.249 341.928 280.362 342.5 280.362C343.003 280.362 343.488 280.267 343.956 280.076C344.424 279.885 344.779 279.677 345.022 279.452V271.834C344.831 271.765 344.563 271.704 344.216 271.652C343.887 271.6 343.427 271.574 342.838 271.574C341.781 271.574 340.914 271.964 340.238 272.744C339.579 273.507 339.25 274.59 339.25 275.994ZM337.04 275.994C337.04 275.023 337.179 274.148 337.456 273.368C337.733 272.588 338.123 271.929 338.626 271.392C339.129 270.837 339.735 270.413 340.446 270.118C341.174 269.823 341.971 269.676 342.838 269.676C343.774 269.676 344.597 269.754 345.308 269.91C346.036 270.049 346.651 270.187 347.154 270.326V286.29H344.996V281.532C344.736 281.705 344.363 281.87 343.878 282.026C343.393 282.199 342.847 282.286 342.24 282.286C341.425 282.286 340.697 282.13 340.056 281.818C339.415 281.506 338.869 281.073 338.418 280.518C337.985 279.963 337.647 279.305 337.404 278.542C337.161 277.762 337.04 276.913 337.04 275.994ZM360.154 281.662C359.686 281.783 359.062 281.913 358.282 282.052C357.519 282.191 356.618 282.26 355.578 282.26C354.659 282.26 353.897 282.13 353.29 281.87C352.683 281.593 352.189 281.211 351.808 280.726C351.427 280.223 351.158 279.634 351.002 278.958C350.846 278.282 350.768 277.537 350.768 276.722V269.936H352.9V276.254C352.9 277.745 353.117 278.802 353.55 279.426C354.001 280.05 354.746 280.362 355.786 280.362C356.011 280.362 356.237 280.353 356.462 280.336C356.705 280.319 356.93 280.301 357.138 280.284C357.346 280.249 357.528 280.223 357.684 280.206C357.84 280.171 357.944 280.145 357.996 280.128V269.936H360.154V281.662ZM367.434 268.064C366.983 268.064 366.593 267.908 366.264 267.596C365.935 267.284 365.77 266.859 365.77 266.322C365.77 265.785 365.935 265.36 366.264 265.048C366.593 264.736 366.983 264.58 367.434 264.58C367.902 264.58 368.292 264.736 368.604 265.048C368.933 265.36 369.098 265.785 369.098 266.322C369.098 266.859 368.933 267.284 368.604 267.596C368.292 267.908 367.902 268.064 367.434 268.064ZM366.888 271.73H363.404V269.936H369.02V277.346C369.02 278.542 369.185 279.348 369.514 279.764C369.843 280.163 370.337 280.362 370.996 280.362C371.499 280.362 371.958 280.301 372.374 280.18C372.807 280.059 373.145 279.929 373.388 279.79L373.7 281.61C373.596 281.662 373.449 281.731 373.258 281.818C373.067 281.887 372.842 281.957 372.582 282.026C372.339 282.095 372.062 282.156 371.75 282.208C371.455 282.26 371.143 282.286 370.814 282.286C370.051 282.286 369.419 282.182 368.916 281.974C368.413 281.766 368.006 281.454 367.694 281.038C367.399 280.622 367.191 280.111 367.07 279.504C366.949 278.88 366.888 278.161 366.888 277.346V271.73ZM377.782 282V270.586C379.55 269.979 381.335 269.676 383.138 269.676C383.693 269.676 384.221 269.702 384.724 269.754C385.227 269.789 385.781 269.875 386.388 270.014L385.998 271.912C385.443 271.756 384.949 271.661 384.516 271.626C384.1 271.574 383.641 271.548 383.138 271.548C382.081 271.548 381.006 271.695 379.914 271.99V282H377.782ZM394.734 269.65C396.363 269.65 397.62 270.161 398.504 271.184C399.388 272.189 399.83 273.723 399.83 275.786V276.54H391.198C391.285 277.788 391.692 278.741 392.42 279.4C393.165 280.041 394.205 280.362 395.54 280.362C396.303 280.362 396.953 280.301 397.49 280.18C398.027 280.059 398.435 279.929 398.712 279.79L398.998 281.61C398.738 281.749 398.27 281.896 397.594 282.052C396.918 282.208 396.155 282.286 395.306 282.286C394.266 282.286 393.347 282.13 392.55 281.818C391.77 281.489 391.12 281.047 390.6 280.492C390.08 279.937 389.69 279.279 389.43 278.516C389.17 277.736 389.04 276.895 389.04 275.994C389.04 274.919 389.205 273.983 389.534 273.186C389.863 272.389 390.297 271.73 390.834 271.21C391.371 270.69 391.978 270.3 392.654 270.04C393.33 269.78 394.023 269.65 394.734 269.65ZM397.646 274.798C397.646 273.775 397.377 272.969 396.84 272.38C396.303 271.773 395.592 271.47 394.708 271.47C394.205 271.47 393.746 271.565 393.33 271.756C392.931 271.947 392.585 272.198 392.29 272.51C391.995 272.822 391.761 273.177 391.588 273.576C391.415 273.975 391.302 274.382 391.25 274.798H397.646ZM402.066 270.274C403.106 269.875 404.085 269.676 405.004 269.676C405.507 269.676 405.975 269.754 406.408 269.91C406.859 270.049 407.24 270.274 407.552 270.586C408.297 269.979 409.095 269.676 409.944 269.676C410.36 269.676 410.75 269.754 411.114 269.91C411.495 270.066 411.825 270.3 412.102 270.612C412.397 270.924 412.631 271.314 412.804 271.782C412.977 272.25 413.064 272.796 413.064 273.42V282H411.114V273.368C411.114 272.744 410.975 272.267 410.698 271.938C410.421 271.609 410.074 271.444 409.658 271.444C409.45 271.444 409.233 271.496 409.008 271.6C408.783 271.704 408.575 271.869 408.384 272.094C408.488 272.493 408.54 272.935 408.54 273.42V277.346H406.59V273.394C406.59 272.787 406.495 272.311 406.304 271.964C406.113 271.617 405.741 271.444 405.186 271.444C404.839 271.444 404.449 271.522 404.016 271.678V282H402.066V270.274ZM420.734 269.65C422.363 269.65 423.62 270.161 424.504 271.184C425.388 272.189 425.83 273.723 425.83 275.786V276.54H417.198C417.285 277.788 417.692 278.741 418.42 279.4C419.165 280.041 420.205 280.362 421.54 280.362C422.303 280.362 422.953 280.301 423.49 280.18C424.027 280.059 424.435 279.929 424.712 279.79L424.998 281.61C424.738 281.749 424.27 281.896 423.594 282.052C422.918 282.208 422.155 282.286 421.306 282.286C420.266 282.286 419.347 282.13 418.55 281.818C417.77 281.489 417.12 281.047 416.6 280.492C416.08 279.937 415.69 279.279 415.43 278.516C415.17 277.736 415.04 276.895 415.04 275.994C415.04 274.919 415.205 273.983 415.534 273.186C415.863 272.389 416.297 271.73 416.834 271.21C417.371 270.69 417.978 270.3 418.654 270.04C419.33 269.78 420.023 269.65 420.734 269.65ZM423.646 274.798C423.646 273.775 423.377 272.969 422.84 272.38C422.303 271.773 421.592 271.47 420.708 271.47C420.205 271.47 419.746 271.565 419.33 271.756C418.931 271.947 418.585 272.198 418.29 272.51C417.995 272.822 417.761 273.177 417.588 273.576C417.415 273.975 417.302 274.382 417.25 274.798H423.646ZM428.846 270.274C429.626 270.083 430.397 269.936 431.16 269.832C431.94 269.728 432.668 269.676 433.344 269.676C434.956 269.676 436.169 270.092 436.984 270.924C437.816 271.756 438.232 273.091 438.232 274.928V282H436.1V275.318C436.1 274.538 436.031 273.905 435.892 273.42C435.753 272.935 435.554 272.562 435.294 272.302C435.051 272.025 434.748 271.834 434.384 271.73C434.037 271.626 433.656 271.574 433.24 271.574C432.893 271.574 432.521 271.6 432.122 271.652C431.741 271.687 431.368 271.739 431.004 271.808V282H428.846V270.274ZM446.318 269.936H451.414V271.73H446.318V277.346C446.318 277.953 446.361 278.447 446.448 278.828C446.535 279.209 446.673 279.521 446.864 279.764C447.072 279.989 447.332 280.145 447.644 280.232C447.956 280.319 448.337 280.362 448.788 280.362C449.412 280.362 449.915 280.31 450.296 280.206C450.677 280.102 451.041 279.963 451.388 279.79L451.7 281.61C451.457 281.714 451.067 281.853 450.53 282.026C450.01 282.199 449.36 282.286 448.58 282.286C447.679 282.286 446.942 282.182 446.37 281.974C445.798 281.766 445.347 281.454 445.018 281.038C444.706 280.622 444.489 280.111 444.368 279.504C444.247 278.88 444.186 278.161 444.186 277.346V271.73H441.638V269.936H444.186V266.556L446.318 266.192V269.936ZM462.126 278.984C462.126 278.551 461.944 278.195 461.58 277.918C461.233 277.641 460.791 277.398 460.254 277.19C459.734 276.982 459.162 276.783 458.538 276.592C457.914 276.384 457.333 276.133 456.796 275.838C456.276 275.543 455.834 275.179 455.47 274.746C455.123 274.313 454.95 273.749 454.95 273.056C454.95 272.085 455.34 271.279 456.12 270.638C456.917 269.979 458.157 269.65 459.838 269.65C460.497 269.65 461.173 269.702 461.866 269.806C462.577 269.893 463.183 270.014 463.686 270.17L463.296 272.094C463.157 272.025 462.967 271.955 462.724 271.886C462.481 271.799 462.204 271.73 461.892 271.678C461.58 271.609 461.242 271.557 460.878 271.522C460.531 271.487 460.193 271.47 459.864 271.47C457.992 271.47 457.056 271.981 457.056 273.004C457.056 273.368 457.229 273.68 457.576 273.94C457.94 274.183 458.391 274.408 458.928 274.616C459.465 274.824 460.046 275.041 460.67 275.266C461.294 275.474 461.875 275.734 462.412 276.046C462.949 276.358 463.391 276.739 463.738 277.19C464.102 277.623 464.284 278.178 464.284 278.854C464.284 279.946 463.859 280.795 463.01 281.402C462.161 281.991 460.817 282.286 458.98 282.286C458.148 282.286 457.385 282.217 456.692 282.078C455.999 281.939 455.34 281.731 454.716 281.454L455.132 279.504C455.739 279.781 456.371 280.015 457.03 280.206C457.706 280.379 458.425 280.466 459.188 280.466C461.147 280.466 462.126 279.972 462.126 278.984Z" fill="black"/>
<path d="M664.96 278.94C664.96 280.431 664.769 281.696 664.388 282.736C664.024 283.776 663.513 284.625 662.854 285.284C662.213 285.925 661.441 286.393 660.54 286.688C659.656 286.983 658.694 287.13 657.654 287.13C656.579 287.13 655.496 287 654.404 286.74V271.14C655.496 270.88 656.579 270.75 657.654 270.75C658.694 270.75 659.656 270.897 660.54 271.192C661.441 271.487 662.213 271.963 662.854 272.622C663.513 273.281 664.024 274.13 664.388 275.17C664.769 276.21 664.96 277.467 664.96 278.94ZM656.536 285.206C656.969 285.258 657.411 285.284 657.862 285.284C658.642 285.284 659.335 285.171 659.942 284.946C660.549 284.703 661.06 284.331 661.476 283.828C661.892 283.308 662.213 282.649 662.438 281.852C662.663 281.037 662.776 280.067 662.776 278.94C662.776 276.756 662.351 275.153 661.502 274.13C660.67 273.107 659.431 272.596 657.784 272.596C657.559 272.596 657.333 272.605 657.108 272.622C656.9 272.622 656.709 272.639 656.536 272.674V285.206ZM672.734 274.65C674.363 274.65 675.62 275.161 676.504 276.184C677.388 277.189 677.83 278.723 677.83 280.786V281.54H669.198C669.285 282.788 669.692 283.741 670.42 284.4C671.165 285.041 672.205 285.362 673.54 285.362C674.303 285.362 674.953 285.301 675.49 285.18C676.027 285.059 676.435 284.929 676.712 284.79L676.998 286.61C676.738 286.749 676.27 286.896 675.594 287.052C674.918 287.208 674.155 287.286 673.306 287.286C672.266 287.286 671.347 287.13 670.55 286.818C669.77 286.489 669.12 286.047 668.6 285.492C668.08 284.937 667.69 284.279 667.43 283.516C667.17 282.736 667.04 281.895 667.04 280.994C667.04 279.919 667.205 278.983 667.534 278.186C667.863 277.389 668.297 276.73 668.834 276.21C669.371 275.69 669.978 275.3 670.654 275.04C671.33 274.78 672.023 274.65 672.734 274.65ZM675.646 279.798C675.646 278.775 675.377 277.969 674.84 277.38C674.303 276.773 673.592 276.47 672.708 276.47C672.205 276.47 671.746 276.565 671.33 276.756C670.931 276.947 670.585 277.198 670.29 277.51C669.995 277.822 669.761 278.177 669.588 278.576C669.415 278.975 669.302 279.382 669.25 279.798H675.646ZM688.126 283.984C688.126 283.551 687.944 283.195 687.58 282.918C687.233 282.641 686.791 282.398 686.254 282.19C685.734 281.982 685.162 281.783 684.538 281.592C683.914 281.384 683.333 281.133 682.796 280.838C682.276 280.543 681.834 280.179 681.47 279.746C681.123 279.313 680.95 278.749 680.95 278.056C680.95 277.085 681.34 276.279 682.12 275.638C682.917 274.979 684.157 274.65 685.838 274.65C686.497 274.65 687.173 274.702 687.866 274.806C688.577 274.893 689.183 275.014 689.686 275.17L689.296 277.094C689.157 277.025 688.967 276.955 688.724 276.886C688.481 276.799 688.204 276.73 687.892 276.678C687.58 276.609 687.242 276.557 686.878 276.522C686.531 276.487 686.193 276.47 685.864 276.47C683.992 276.47 683.056 276.981 683.056 278.004C683.056 278.368 683.229 278.68 683.576 278.94C683.94 279.183 684.391 279.408 684.928 279.616C685.465 279.824 686.046 280.041 686.67 280.266C687.294 280.474 687.875 280.734 688.412 281.046C688.949 281.358 689.391 281.739 689.738 282.19C690.102 282.623 690.284 283.178 690.284 283.854C690.284 284.946 689.859 285.795 689.01 286.402C688.161 286.991 686.817 287.286 684.98 287.286C684.148 287.286 683.385 287.217 682.692 287.078C681.999 286.939 681.34 286.731 680.716 286.454L681.132 284.504C681.739 284.781 682.371 285.015 683.03 285.206C683.706 285.379 684.425 285.466 685.188 285.466C687.147 285.466 688.126 284.972 688.126 283.984ZM697.434 273.064C696.983 273.064 696.593 272.908 696.264 272.596C695.935 272.284 695.77 271.859 695.77 271.322C695.77 270.785 695.935 270.36 696.264 270.048C696.593 269.736 696.983 269.58 697.434 269.58C697.902 269.58 698.292 269.736 698.604 270.048C698.933 270.36 699.098 270.785 699.098 271.322C699.098 271.859 698.933 272.284 698.604 272.596C698.292 272.908 697.902 273.064 697.434 273.064ZM696.888 276.73H693.404V274.936H699.02V282.346C699.02 283.542 699.185 284.348 699.514 284.764C699.843 285.163 700.337 285.362 700.996 285.362C701.499 285.362 701.958 285.301 702.374 285.18C702.807 285.059 703.145 284.929 703.388 284.79L703.7 286.61C703.596 286.662 703.449 286.731 703.258 286.818C703.067 286.887 702.842 286.957 702.582 287.026C702.339 287.095 702.062 287.156 701.75 287.208C701.455 287.26 701.143 287.286 700.814 287.286C700.051 287.286 699.419 287.182 698.916 286.974C698.413 286.766 698.006 286.454 697.694 286.038C697.399 285.622 697.191 285.111 697.07 284.504C696.949 283.88 696.888 283.161 696.888 282.346V276.73ZM713.996 285.882C713.753 286.021 713.381 286.168 712.878 286.324C712.375 286.48 711.795 286.558 711.136 286.558C710.425 286.558 709.758 286.445 709.134 286.22C708.527 285.977 707.99 285.622 707.522 285.154C707.071 284.669 706.707 284.062 706.43 283.334C706.17 282.589 706.04 281.713 706.04 280.708C706.04 279.824 706.161 279.018 706.404 278.29C706.664 277.545 707.028 276.903 707.496 276.366C707.981 275.829 708.571 275.413 709.264 275.118C709.957 274.806 710.746 274.65 711.63 274.65C712.67 274.65 713.554 274.728 714.282 274.884C715.027 275.023 715.651 275.161 716.154 275.3V286.064C716.154 287.936 715.677 289.288 714.724 290.12C713.788 290.952 712.367 291.368 710.46 291.368C709.68 291.368 708.969 291.307 708.328 291.186C707.704 291.065 707.149 290.917 706.664 290.744L707.054 288.846C707.505 289.037 708.016 289.193 708.588 289.314C709.177 289.435 709.819 289.496 710.512 289.496C711.76 289.496 712.653 289.245 713.19 288.742C713.727 288.239 713.996 287.425 713.996 286.298V285.882ZM713.996 276.834C713.788 276.765 713.502 276.704 713.138 276.652C712.774 276.583 712.28 276.548 711.656 276.548C710.547 276.548 709.697 276.929 709.108 277.692C708.536 278.455 708.25 279.469 708.25 280.734C708.25 281.427 708.328 282.025 708.484 282.528C708.657 283.013 708.883 283.421 709.16 283.75C709.455 284.062 709.784 284.296 710.148 284.452C710.512 284.591 710.902 284.66 711.318 284.66C711.855 284.66 712.358 284.582 712.826 284.426C713.311 284.27 713.701 284.088 713.996 283.88V276.834ZM719.846 275.274C720.626 275.083 721.397 274.936 722.16 274.832C722.94 274.728 723.668 274.676 724.344 274.676C725.956 274.676 727.169 275.092 727.984 275.924C728.816 276.756 729.232 278.091 729.232 279.928V287H727.1V280.318C727.1 279.538 727.031 278.905 726.892 278.42C726.753 277.935 726.554 277.562 726.294 277.302C726.051 277.025 725.748 276.834 725.384 276.73C725.037 276.626 724.656 276.574 724.24 276.574C723.893 276.574 723.521 276.6 723.122 276.652C722.741 276.687 722.368 276.739 722.004 276.808V287H719.846V275.274Z" fill="black"/>
<path d="M972.46 273.94C972.46 275.431 972.269 276.696 971.888 277.736C971.524 278.776 971.013 279.625 970.354 280.284C969.713 280.925 968.941 281.393 968.04 281.688C967.156 281.983 966.194 282.13 965.154 282.13C964.079 282.13 962.996 282 961.904 281.74V266.14C962.996 265.88 964.079 265.75 965.154 265.75C966.194 265.75 967.156 265.897 968.04 266.192C968.941 266.487 969.713 266.963 970.354 267.622C971.013 268.281 971.524 269.13 971.888 270.17C972.269 271.21 972.46 272.467 972.46 273.94ZM964.036 280.206C964.469 280.258 964.911 280.284 965.362 280.284C966.142 280.284 966.835 280.171 967.442 279.946C968.049 279.703 968.56 279.331 968.976 278.828C969.392 278.308 969.713 277.649 969.938 276.852C970.163 276.037 970.276 275.067 970.276 273.94C970.276 271.756 969.851 270.153 969.002 269.13C968.17 268.107 966.931 267.596 965.284 267.596C965.059 267.596 964.833 267.605 964.608 267.622C964.4 267.622 964.209 267.639 964.036 267.674V280.206ZM980.234 269.65C981.863 269.65 983.12 270.161 984.004 271.184C984.888 272.189 985.33 273.723 985.33 275.786V276.54H976.698C976.785 277.788 977.192 278.741 977.92 279.4C978.665 280.041 979.705 280.362 981.04 280.362C981.803 280.362 982.453 280.301 982.99 280.18C983.527 280.059 983.935 279.929 984.212 279.79L984.498 281.61C984.238 281.749 983.77 281.896 983.094 282.052C982.418 282.208 981.655 282.286 980.806 282.286C979.766 282.286 978.847 282.13 978.05 281.818C977.27 281.489 976.62 281.047 976.1 280.492C975.58 279.937 975.19 279.279 974.93 278.516C974.67 277.736 974.54 276.895 974.54 275.994C974.54 274.919 974.705 273.983 975.034 273.186C975.363 272.389 975.797 271.73 976.334 271.21C976.871 270.69 977.478 270.3 978.154 270.04C978.83 269.78 979.523 269.65 980.234 269.65ZM983.146 274.798C983.146 273.775 982.877 272.969 982.34 272.38C981.803 271.773 981.092 271.47 980.208 271.47C979.705 271.47 979.246 271.565 978.83 271.756C978.431 271.947 978.085 272.198 977.79 272.51C977.495 272.822 977.261 273.177 977.088 273.576C976.915 273.975 976.802 274.382 976.75 274.798H983.146ZM998.72 269.936C998.408 271.063 998.053 272.172 997.654 273.264C997.255 274.339 996.848 275.396 996.432 276.436C996.016 277.459 995.591 278.438 995.158 279.374C994.725 280.31 994.309 281.185 993.91 282H991.96C991.145 280.371 990.322 278.516 989.49 276.436C988.658 274.356 987.921 272.189 987.28 269.936H989.62C989.828 270.699 990.062 271.505 990.322 272.354C990.599 273.203 990.885 274.053 991.18 274.902C991.475 275.751 991.769 276.575 992.064 277.372C992.376 278.152 992.679 278.854 992.974 279.478C993.269 278.854 993.572 278.152 993.884 277.372C994.213 276.575 994.534 275.751 994.846 274.902C995.158 274.053 995.453 273.203 995.73 272.354C996.025 271.505 996.276 270.699 996.484 269.936H998.72ZM1006.23 269.65C1007.86 269.65 1009.12 270.161 1010 271.184C1010.89 272.189 1011.33 273.723 1011.33 275.786V276.54H1002.7C1002.78 277.788 1003.19 278.741 1003.92 279.4C1004.67 280.041 1005.71 280.362 1007.04 280.362C1007.8 280.362 1008.45 280.301 1008.99 280.18C1009.53 280.059 1009.93 279.929 1010.21 279.79L1010.5 281.61C1010.24 281.749 1009.77 281.896 1009.09 282.052C1008.42 282.208 1007.66 282.286 1006.81 282.286C1005.77 282.286 1004.85 282.13 1004.05 281.818C1003.27 281.489 1002.62 281.047 1002.1 280.492C1001.58 279.937 1001.19 279.279 1000.93 278.516C1000.67 277.736 1000.54 276.895 1000.54 275.994C1000.54 274.919 1000.7 273.983 1001.03 273.186C1001.36 272.389 1001.8 271.73 1002.33 271.21C1002.87 270.69 1003.48 270.3 1004.15 270.04C1004.83 269.78 1005.52 269.65 1006.23 269.65ZM1009.15 274.798C1009.15 273.775 1008.88 272.969 1008.34 272.38C1007.8 271.773 1007.09 271.47 1006.21 271.47C1005.71 271.47 1005.25 271.565 1004.83 271.756C1004.43 271.947 1004.08 272.198 1003.79 272.51C1003.5 272.822 1003.26 273.177 1003.09 273.576C1002.91 273.975 1002.8 274.382 1002.75 274.798H1009.15ZM1021.29 282.286C1020.53 282.286 1019.89 282.182 1019.39 281.974C1018.89 281.766 1018.49 281.454 1018.19 281.038C1017.9 280.622 1017.69 280.111 1017.57 279.504C1017.45 278.88 1017.39 278.161 1017.39 277.346V265.932H1013.9V264.112H1019.52V277.346C1019.52 277.953 1019.55 278.447 1019.62 278.828C1019.71 279.209 1019.83 279.521 1019.99 279.764C1020.16 279.989 1020.37 280.145 1020.61 280.232C1020.85 280.319 1021.14 280.362 1021.47 280.362C1021.97 280.362 1022.44 280.301 1022.87 280.18C1023.31 280.059 1023.65 279.929 1023.89 279.79L1024.2 281.61C1024.1 281.662 1023.95 281.731 1023.76 281.818C1023.57 281.887 1023.34 281.957 1023.08 282.026C1022.82 282.095 1022.54 282.156 1022.22 282.208C1021.93 282.26 1021.62 282.286 1021.29 282.286ZM1037.46 275.968C1037.46 276.921 1037.32 277.788 1037.04 278.568C1036.78 279.331 1036.41 279.989 1035.93 280.544C1035.44 281.099 1034.86 281.532 1034.18 281.844C1033.51 282.139 1032.77 282.286 1031.97 282.286C1031.19 282.286 1030.47 282.139 1029.79 281.844C1029.13 281.532 1028.56 281.099 1028.07 280.544C1027.59 279.989 1027.21 279.331 1026.93 278.568C1026.67 277.788 1026.54 276.921 1026.54 275.968C1026.54 275.015 1026.67 274.148 1026.93 273.368C1027.21 272.588 1027.59 271.929 1028.07 271.392C1028.56 270.837 1029.13 270.413 1029.79 270.118C1030.47 269.806 1031.19 269.65 1031.97 269.65C1032.77 269.65 1033.51 269.806 1034.18 270.118C1034.86 270.413 1035.44 270.837 1035.93 271.392C1036.41 271.929 1036.78 272.588 1037.04 273.368C1037.32 274.148 1037.46 275.015 1037.46 275.968ZM1035.25 275.968C1035.25 274.599 1034.96 273.524 1034.37 272.744C1033.78 271.947 1032.98 271.548 1031.97 271.548C1030.99 271.548 1030.2 271.947 1029.61 272.744C1029.04 273.524 1028.75 274.599 1028.75 275.968C1028.75 277.32 1029.04 278.395 1029.61 279.192C1030.2 279.972 1030.99 280.362 1031.97 280.362C1032.98 280.362 1033.78 279.972 1034.37 279.192C1034.96 278.395 1035.25 277.32 1035.25 275.968ZM1048.25 275.994C1048.25 274.59 1047.92 273.507 1047.26 272.744C1046.6 271.964 1045.75 271.574 1044.69 271.574C1044.1 271.574 1043.63 271.6 1043.28 271.652C1042.95 271.704 1042.69 271.765 1042.5 271.834V279.452C1042.75 279.677 1043.1 279.885 1043.57 280.076C1044.04 280.267 1044.52 280.362 1045.03 280.362C1045.6 280.362 1046.08 280.249 1046.48 280.024C1046.9 279.799 1047.24 279.495 1047.5 279.114C1047.76 278.715 1047.95 278.256 1048.07 277.736C1048.19 277.199 1048.25 276.618 1048.25 275.994ZM1050.46 275.994C1050.46 276.913 1050.34 277.762 1050.1 278.542C1049.87 279.305 1049.53 279.963 1049.08 280.518C1048.65 281.073 1048.11 281.506 1047.47 281.818C1046.83 282.13 1046.1 282.286 1045.29 282.286C1044.64 282.286 1044.08 282.208 1043.6 282.052C1043.11 281.896 1042.75 281.723 1042.5 281.532V286.29H1040.35V270.3C1040.81 270.161 1041.41 270.023 1042.14 269.884C1042.89 269.745 1043.73 269.676 1044.69 269.676C1045.55 269.676 1046.34 269.823 1047.05 270.118C1047.76 270.413 1048.37 270.837 1048.87 271.392C1049.38 271.929 1049.77 272.588 1050.04 273.368C1050.32 274.148 1050.46 275.023 1050.46 275.994Z" fill="black"/>
<path d="M996.986 557.906V559.726H992.566V574H990.434V559.726H986.014V557.906H996.986ZM1004.73 561.65C1006.36 561.65 1007.62 562.161 1008.5 563.184C1009.39 564.189 1009.83 565.723 1009.83 567.786V568.54H1001.2C1001.28 569.788 1001.69 570.741 1002.42 571.4C1003.17 572.041 1004.21 572.362 1005.54 572.362C1006.3 572.362 1006.95 572.301 1007.49 572.18C1008.03 572.059 1008.43 571.929 1008.71 571.79L1009 573.61C1008.74 573.749 1008.27 573.896 1007.59 574.052C1006.92 574.208 1006.16 574.286 1005.31 574.286C1004.27 574.286 1003.35 574.13 1002.55 573.818C1001.77 573.489 1001.12 573.047 1000.6 572.492C1000.08 571.937 999.69 571.279 999.43 570.516C999.17 569.736 999.04 568.895 999.04 567.994C999.04 566.919 999.205 565.983 999.534 565.186C999.863 564.389 1000.3 563.73 1000.83 563.21C1001.37 562.69 1001.98 562.3 1002.65 562.04C1003.33 561.78 1004.02 561.65 1004.73 561.65ZM1007.65 566.798C1007.65 565.775 1007.38 564.969 1006.84 564.38C1006.3 563.773 1005.59 563.47 1004.71 563.47C1004.21 563.47 1003.75 563.565 1003.33 563.756C1002.93 563.947 1002.58 564.198 1002.29 564.51C1002 564.822 1001.76 565.177 1001.59 565.576C1001.41 565.975 1001.3 566.382 1001.25 566.798H1007.65ZM1020.13 570.984C1020.13 570.551 1019.94 570.195 1019.58 569.918C1019.23 569.641 1018.79 569.398 1018.25 569.19C1017.73 568.982 1017.16 568.783 1016.54 568.592C1015.91 568.384 1015.33 568.133 1014.8 567.838C1014.28 567.543 1013.83 567.179 1013.47 566.746C1013.12 566.313 1012.95 565.749 1012.95 565.056C1012.95 564.085 1013.34 563.279 1014.12 562.638C1014.92 561.979 1016.16 561.65 1017.84 561.65C1018.5 561.65 1019.17 561.702 1019.87 561.806C1020.58 561.893 1021.18 562.014 1021.69 562.17L1021.3 564.094C1021.16 564.025 1020.97 563.955 1020.72 563.886C1020.48 563.799 1020.2 563.73 1019.89 563.678C1019.58 563.609 1019.24 563.557 1018.88 563.522C1018.53 563.487 1018.19 563.47 1017.86 563.47C1015.99 563.47 1015.06 563.981 1015.06 565.004C1015.06 565.368 1015.23 565.68 1015.58 565.94C1015.94 566.183 1016.39 566.408 1016.93 566.616C1017.47 566.824 1018.05 567.041 1018.67 567.266C1019.29 567.474 1019.87 567.734 1020.41 568.046C1020.95 568.358 1021.39 568.739 1021.74 569.19C1022.1 569.623 1022.28 570.178 1022.28 570.854C1022.28 571.946 1021.86 572.795 1021.01 573.402C1020.16 573.991 1018.82 574.286 1016.98 574.286C1016.15 574.286 1015.39 574.217 1014.69 574.078C1014 573.939 1013.34 573.731 1012.72 573.454L1013.13 571.504C1013.74 571.781 1014.37 572.015 1015.03 572.206C1015.71 572.379 1016.43 572.466 1017.19 572.466C1019.15 572.466 1020.13 571.972 1020.13 570.984ZM1030.32 561.936H1035.41V563.73H1030.32V569.346C1030.32 569.953 1030.36 570.447 1030.45 570.828C1030.53 571.209 1030.67 571.521 1030.86 571.764C1031.07 571.989 1031.33 572.145 1031.64 572.232C1031.96 572.319 1032.34 572.362 1032.79 572.362C1033.41 572.362 1033.91 572.31 1034.3 572.206C1034.68 572.102 1035.04 571.963 1035.39 571.79L1035.7 573.61C1035.46 573.714 1035.07 573.853 1034.53 574.026C1034.01 574.199 1033.36 574.286 1032.58 574.286C1031.68 574.286 1030.94 574.182 1030.37 573.974C1029.8 573.766 1029.35 573.454 1029.02 573.038C1028.71 572.622 1028.49 572.111 1028.37 571.504C1028.25 570.88 1028.19 570.161 1028.19 569.346V563.73H1025.64V561.936H1028.19V558.556L1030.32 558.192V561.936Z" fill="black"/>
<path d="M669.96 565.94C669.96 567.431 669.769 568.696 669.388 569.736C669.024 570.776 668.513 571.625 667.854 572.284C667.213 572.925 666.441 573.393 665.54 573.688C664.656 573.983 663.694 574.13 662.654 574.13C661.579 574.13 660.496 574 659.404 573.74V558.14C660.496 557.88 661.579 557.75 662.654 557.75C663.694 557.75 664.656 557.897 665.54 558.192C666.441 558.487 667.213 558.963 667.854 559.622C668.513 560.281 669.024 561.13 669.388 562.17C669.769 563.21 669.96 564.467 669.96 565.94ZM661.536 572.206C661.969 572.258 662.411 572.284 662.862 572.284C663.642 572.284 664.335 572.171 664.942 571.946C665.549 571.703 666.06 571.331 666.476 570.828C666.892 570.308 667.213 569.649 667.438 568.852C667.663 568.037 667.776 567.067 667.776 565.94C667.776 563.756 667.351 562.153 666.502 561.13C665.67 560.107 664.431 559.596 662.784 559.596C662.559 559.596 662.333 559.605 662.108 559.622C661.9 559.622 661.709 559.639 661.536 559.674V572.206ZM677.734 561.65C679.363 561.65 680.62 562.161 681.504 563.184C682.388 564.189 682.83 565.723 682.83 567.786V568.54H674.198C674.285 569.788 674.692 570.741 675.42 571.4C676.165 572.041 677.205 572.362 678.54 572.362C679.303 572.362 679.953 572.301 680.49 572.18C681.027 572.059 681.435 571.929 681.712 571.79L681.998 573.61C681.738 573.749 681.27 573.896 680.594 574.052C679.918 574.208 679.155 574.286 678.306 574.286C677.266 574.286 676.347 574.13 675.55 573.818C674.77 573.489 674.12 573.047 673.6 572.492C673.08 571.937 672.69 571.279 672.43 570.516C672.17 569.736 672.04 568.895 672.04 567.994C672.04 566.919 672.205 565.983 672.534 565.186C672.863 564.389 673.297 563.73 673.834 563.21C674.371 562.69 674.978 562.3 675.654 562.04C676.33 561.78 677.023 561.65 677.734 561.65ZM680.646 566.798C680.646 565.775 680.377 564.969 679.84 564.38C679.303 563.773 678.592 563.47 677.708 563.47C677.205 563.47 676.746 563.565 676.33 563.756C675.931 563.947 675.585 564.198 675.29 564.51C674.995 564.822 674.761 565.177 674.588 565.576C674.415 565.975 674.302 566.382 674.25 566.798H680.646ZM693.75 567.994C693.75 566.59 693.421 565.507 692.762 564.744C692.103 563.964 691.245 563.574 690.188 563.574C689.599 563.574 689.131 563.6 688.784 563.652C688.455 563.704 688.195 563.765 688.004 563.834V571.452C688.247 571.677 688.602 571.885 689.07 572.076C689.538 572.267 690.023 572.362 690.526 572.362C691.098 572.362 691.583 572.249 691.982 572.024C692.398 571.799 692.736 571.495 692.996 571.114C693.256 570.715 693.447 570.256 693.568 569.736C693.689 569.199 693.75 568.618 693.75 567.994ZM695.96 567.994C695.96 568.913 695.839 569.762 695.596 570.542C695.371 571.305 695.033 571.963 694.582 572.518C694.149 573.073 693.611 573.506 692.97 573.818C692.329 574.13 691.601 574.286 690.786 574.286C690.145 574.286 689.581 574.208 689.096 574.052C688.611 573.896 688.247 573.723 688.004 573.532V578.29H685.846V562.3C686.314 562.161 686.912 562.023 687.64 561.884C688.385 561.745 689.235 561.676 690.188 561.676C691.055 561.676 691.843 561.823 692.554 562.118C693.265 562.413 693.871 562.837 694.374 563.392C694.877 563.929 695.267 564.588 695.544 565.368C695.821 566.148 695.96 567.023 695.96 567.994ZM705.788 574.286C705.025 574.286 704.393 574.182 703.89 573.974C703.387 573.766 702.989 573.454 702.694 573.038C702.399 572.622 702.191 572.111 702.07 571.504C701.949 570.88 701.888 570.161 701.888 569.346V557.932H698.404V556.112H704.02V569.346C704.02 569.953 704.055 570.447 704.124 570.828C704.211 571.209 704.332 571.521 704.488 571.764C704.661 571.989 704.869 572.145 705.112 572.232C705.355 572.319 705.641 572.362 705.97 572.362C706.473 572.362 706.941 572.301 707.374 572.18C707.807 572.059 708.145 571.929 708.388 571.79L708.7 573.61C708.596 573.662 708.449 573.731 708.258 573.818C708.067 573.887 707.842 573.957 707.582 574.026C707.322 574.095 707.036 574.156 706.724 574.208C706.429 574.26 706.117 574.286 705.788 574.286ZM721.96 567.968C721.96 568.921 721.821 569.788 721.544 570.568C721.284 571.331 720.911 571.989 720.426 572.544C719.941 573.099 719.36 573.532 718.684 573.844C718.008 574.139 717.271 574.286 716.474 574.286C715.694 574.286 714.966 574.139 714.29 573.844C713.631 573.532 713.059 573.099 712.574 572.544C712.089 571.989 711.707 571.331 711.43 570.568C711.17 569.788 711.04 568.921 711.04 567.968C711.04 567.015 711.17 566.148 711.43 565.368C711.707 564.588 712.089 563.929 712.574 563.392C713.059 562.837 713.631 562.413 714.29 562.118C714.966 561.806 715.694 561.65 716.474 561.65C717.271 561.65 718.008 561.806 718.684 562.118C719.36 562.413 719.941 562.837 720.426 563.392C720.911 563.929 721.284 564.588 721.544 565.368C721.821 566.148 721.96 567.015 721.96 567.968ZM719.75 567.968C719.75 566.599 719.455 565.524 718.866 564.744C718.277 563.947 717.479 563.548 716.474 563.548C715.486 563.548 714.697 563.947 714.108 564.744C713.536 565.524 713.25 566.599 713.25 567.968C713.25 569.32 713.536 570.395 714.108 571.192C714.697 571.972 715.486 572.362 716.474 572.362C717.479 572.362 718.277 571.972 718.866 571.192C719.455 570.395 719.75 569.32 719.75 567.968ZM724.326 576.262C724.482 576.349 724.699 576.418 724.976 576.47C725.271 576.522 725.539 576.548 725.782 576.548C726.631 576.548 727.29 576.357 727.758 575.976C728.243 575.612 728.685 575.005 729.084 574.156C728.113 572.319 727.203 570.351 726.354 568.254C725.505 566.139 724.803 564.033 724.248 561.936H726.588C726.761 562.629 726.961 563.383 727.186 564.198C727.429 564.995 727.697 565.819 727.992 566.668C728.287 567.517 728.599 568.375 728.928 569.242C729.275 570.091 729.639 570.906 730.02 571.686C730.297 570.889 730.557 570.1 730.8 569.32C731.043 568.54 731.268 567.76 731.476 566.98C731.684 566.183 731.892 565.377 732.1 564.562C732.308 563.73 732.525 562.855 732.75 561.936H734.986C734.431 564.189 733.807 566.373 733.114 568.488C732.438 570.603 731.71 572.561 730.93 574.364C730.635 575.057 730.315 575.655 729.968 576.158C729.639 576.661 729.275 577.077 728.876 577.406C728.477 577.735 728.027 577.978 727.524 578.134C727.021 578.29 726.449 578.368 725.808 578.368C725.479 578.368 725.115 578.325 724.716 578.238C724.335 578.151 724.075 578.073 723.936 578.004L724.326 576.262Z" fill="black"/>
<path d="M355.206 562.82C355.206 563.808 354.946 564.683 354.426 565.446C353.906 566.191 353.204 566.772 352.32 567.188C352.58 567.604 352.866 568.081 353.178 568.618C353.507 569.138 353.837 569.701 354.166 570.308C354.495 570.897 354.816 571.513 355.128 572.154C355.457 572.778 355.761 573.393 356.038 574H353.75C353.23 572.752 352.658 571.556 352.034 570.412C351.427 569.268 350.838 568.341 350.266 567.63C350.162 567.647 350.006 567.656 349.798 567.656C349.607 567.656 349.477 567.656 349.408 567.656H347.588V574H345.43V558.14C345.69 558.071 345.985 558.01 346.314 557.958C346.661 557.906 347.007 557.871 347.354 557.854C347.718 557.819 348.073 557.793 348.42 557.776C348.767 557.759 349.079 557.75 349.356 557.75C351.297 557.75 352.753 558.175 353.724 559.024C354.712 559.873 355.206 561.139 355.206 562.82ZM349.538 559.596C349.139 559.596 348.749 559.605 348.368 559.622C348.004 559.622 347.744 559.639 347.588 559.674V565.888H348.966C349.59 565.888 350.145 565.845 350.63 565.758C351.133 565.671 351.557 565.515 351.904 565.29C352.268 565.047 352.545 564.727 352.736 564.328C352.927 563.912 353.022 563.375 353.022 562.716C353.022 562.092 352.927 561.581 352.736 561.182C352.545 560.783 352.294 560.471 351.982 560.246C351.67 560.003 351.297 559.839 350.864 559.752C350.448 559.648 350.006 559.596 349.538 559.596ZM363.734 561.65C365.363 561.65 366.62 562.161 367.504 563.184C368.388 564.189 368.83 565.723 368.83 567.786V568.54H360.198C360.285 569.788 360.692 570.741 361.42 571.4C362.165 572.041 363.205 572.362 364.54 572.362C365.303 572.362 365.953 572.301 366.49 572.18C367.027 572.059 367.435 571.929 367.712 571.79L367.998 573.61C367.738 573.749 367.27 573.896 366.594 574.052C365.918 574.208 365.155 574.286 364.306 574.286C363.266 574.286 362.347 574.13 361.55 573.818C360.77 573.489 360.12 573.047 359.6 572.492C359.08 571.937 358.69 571.279 358.43 570.516C358.17 569.736 358.04 568.895 358.04 567.994C358.04 566.919 358.205 565.983 358.534 565.186C358.863 564.389 359.297 563.73 359.834 563.21C360.371 562.69 360.978 562.3 361.654 562.04C362.33 561.78 363.023 561.65 363.734 561.65ZM366.646 566.798C366.646 565.775 366.377 564.969 365.84 564.38C365.303 563.773 364.592 563.47 363.708 563.47C363.205 563.47 362.746 563.565 362.33 563.756C361.931 563.947 361.585 564.198 361.29 564.51C360.995 564.822 360.761 565.177 360.588 565.576C360.415 565.975 360.302 566.382 360.25 566.798H366.646ZM382.22 561.936C381.908 563.063 381.553 564.172 381.154 565.264C380.755 566.339 380.348 567.396 379.932 568.436C379.516 569.459 379.091 570.438 378.658 571.374C378.225 572.31 377.809 573.185 377.41 574H375.46C374.645 572.371 373.822 570.516 372.99 568.436C372.158 566.356 371.421 564.189 370.78 561.936H373.12C373.328 562.699 373.562 563.505 373.822 564.354C374.099 565.203 374.385 566.053 374.68 566.902C374.975 567.751 375.269 568.575 375.564 569.372C375.876 570.152 376.179 570.854 376.474 571.478C376.769 570.854 377.072 570.152 377.384 569.372C377.713 568.575 378.034 567.751 378.346 566.902C378.658 566.053 378.953 565.203 379.23 564.354C379.525 563.505 379.776 562.699 379.984 561.936H382.22ZM388.434 560.064C387.983 560.064 387.593 559.908 387.264 559.596C386.935 559.284 386.77 558.859 386.77 558.322C386.77 557.785 386.935 557.36 387.264 557.048C387.593 556.736 387.983 556.58 388.434 556.58C388.902 556.58 389.292 556.736 389.604 557.048C389.933 557.36 390.098 557.785 390.098 558.322C390.098 558.859 389.933 559.284 389.604 559.596C389.292 559.908 388.902 560.064 388.434 560.064ZM387.888 563.73H384.404V561.936H390.02V569.346C390.02 570.542 390.185 571.348 390.514 571.764C390.843 572.163 391.337 572.362 391.996 572.362C392.499 572.362 392.958 572.301 393.374 572.18C393.807 572.059 394.145 571.929 394.388 571.79L394.7 573.61C394.596 573.662 394.449 573.731 394.258 573.818C394.067 573.887 393.842 573.957 393.582 574.026C393.339 574.095 393.062 574.156 392.75 574.208C392.455 574.26 392.143 574.286 391.814 574.286C391.051 574.286 390.419 574.182 389.916 573.974C389.413 573.766 389.006 573.454 388.694 573.038C388.399 572.622 388.191 572.111 388.07 571.504C387.949 570.88 387.888 570.161 387.888 569.346V563.73ZM402.734 561.65C404.363 561.65 405.62 562.161 406.504 563.184C407.388 564.189 407.83 565.723 407.83 567.786V568.54H399.198C399.285 569.788 399.692 570.741 400.42 571.4C401.165 572.041 402.205 572.362 403.54 572.362C404.303 572.362 404.953 572.301 405.49 572.18C406.027 572.059 406.435 571.929 406.712 571.79L406.998 573.61C406.738 573.749 406.27 573.896 405.594 574.052C404.918 574.208 404.155 574.286 403.306 574.286C402.266 574.286 401.347 574.13 400.55 573.818C399.77 573.489 399.12 573.047 398.6 572.492C398.08 571.937 397.69 571.279 397.43 570.516C397.17 569.736 397.04 568.895 397.04 567.994C397.04 566.919 397.205 565.983 397.534 565.186C397.863 564.389 398.297 563.73 398.834 563.21C399.371 562.69 399.978 562.3 400.654 562.04C401.33 561.78 402.023 561.65 402.734 561.65ZM405.646 566.798C405.646 565.775 405.377 564.969 404.84 564.38C404.303 563.773 403.592 563.47 402.708 563.47C402.205 563.47 401.746 563.565 401.33 563.756C400.931 563.947 400.585 564.198 400.29 564.51C399.995 564.822 399.761 565.177 399.588 565.576C399.415 565.975 399.302 566.382 399.25 566.798H405.646ZM417.918 574C417.658 573.411 417.433 572.873 417.242 572.388C417.051 571.903 416.861 571.417 416.67 570.932C416.497 570.447 416.315 569.944 416.124 569.424C415.951 568.887 415.743 568.28 415.5 567.604C415.257 568.28 415.041 568.887 414.85 569.424C414.659 569.944 414.469 570.447 414.278 570.932C414.105 571.417 413.914 571.903 413.706 572.388C413.515 572.873 413.29 573.411 413.03 574H411.418C410.933 571.868 410.525 569.762 410.196 567.682C409.884 565.585 409.65 563.669 409.494 561.936H411.522C411.574 562.612 411.626 563.279 411.678 563.938C411.747 564.579 411.825 565.255 411.912 565.966C411.999 566.677 412.094 567.448 412.198 568.28C412.319 569.112 412.449 570.048 412.588 571.088C412.865 570.395 413.099 569.788 413.29 569.268C413.481 568.748 413.654 568.254 413.81 567.786C413.966 567.318 414.113 566.841 414.252 566.356C414.408 565.871 414.573 565.325 414.746 564.718H416.358C416.531 565.325 416.687 565.871 416.826 566.356C416.965 566.841 417.112 567.318 417.268 567.786C417.424 568.254 417.589 568.748 417.762 569.268C417.935 569.788 418.152 570.386 418.412 571.062C418.568 570.109 418.707 569.225 418.828 568.41C418.949 567.595 419.053 566.833 419.14 566.122C419.227 565.394 419.305 564.692 419.374 564.016C419.443 563.34 419.504 562.647 419.556 561.936H421.506C421.419 562.803 421.315 563.73 421.194 564.718C421.073 565.706 420.925 566.72 420.752 567.76C420.579 568.8 420.388 569.857 420.18 570.932C419.972 571.989 419.755 573.012 419.53 574H417.918Z" fill="black"/>
<path d="M1064.94 454.939C1064.35 455.525 1064.35 456.475 1064.94 457.061L1074.49 466.607C1075.07 467.192 1076.02 467.192 1076.61 466.607C1077.19 466.021 1077.19 465.071 1076.61 464.485L1068.12 456L1076.61 447.515C1077.19 446.929 1077.19 445.979 1076.61 445.393C1076.02 444.808 1075.07 444.808 1074.49 445.393L1064.94 454.939ZM1088 454.5H1066V457.5H1088V454.5ZM1066 391.5H1088V388.5H1066V391.5ZM1088 391.5C1105.4 391.5 1119.5 405.603 1119.5 423H1122.5C1122.5 403.946 1107.05 388.5 1088 388.5V391.5ZM1088 457.5C1107.05 457.5 1122.5 442.054 1122.5 423H1119.5C1119.5 440.397 1105.4 454.5 1088 454.5V457.5Z" fill="#A6A6A6"/>
<path d="M327.061 391.061C327.646 390.475 327.646 389.525 327.061 388.939L317.515 379.393C316.929 378.808 315.979 378.808 315.393 379.393C314.808 379.979 314.808 380.929 315.393 381.515L323.879 390L315.393 398.485C314.808 399.071 314.808 400.021 315.393 400.607C315.979 401.192 316.929 401.192 317.515 400.607L327.061 391.061ZM304 391.5H326V388.5H304V391.5ZM326 454.5H304V457.5H326V454.5ZM304 454.5C286.603 454.5 272.5 440.397 272.5 423H269.5C269.5 442.054 284.946 457.5 304 457.5V454.5ZM304 388.5C284.946 388.5 269.5 403.946 269.5 423H272.5C272.5 405.603 286.603 391.5 304 391.5V388.5Z" fill="#A6A6A6"/>
<defs>
<filter id="filter0_ddddii" x="918" y="204" width="749.789" height="809.039" filterUnits="userSpaceOnUse" color-interpolation-filters="sRGB">
<feFlood flood-opacity="0" result="BackgroundImageFix"/>
<feColorMatrix in="SourceAlpha" type="matrix" values="0 0 0 0 0 0 0 0 0 0 0 0 0 0 0 0 0 0 127 0"/>
<feOffset dx="23" dy="23"/>
<feGaussianBlur stdDeviation="29"/>
<feColorMatrix type="matrix" values="0 0 0 0 0.992157 0 0 0 0 0.454902 0 0 0 0 0.00784314 0 0 0 0.9 0"/>
<feBlend mode="normal" in2="BackgroundImageFix" result="effect1_dropShadow"/>
<feColorMatrix in="SourceAlpha" type="matrix" values="0 0 0 0 0 0 0 0 0 0 0 0 0 0 0 0 0 0 127 0"/>
<feOffset dx="-23" dy="-23"/>
<feGaussianBlur stdDeviation="23"/>
<feColorMatrix type="matrix" values="0 0 0 0 0.933333 0 0 0 0 0.933333 0 0 0 0 0.933333 0 0 0 0.9 0"/>
<feBlend mode="normal" in2="effect1_dropShadow" result="effect2_dropShadow"/>
<feColorMatrix in="SourceAlpha" type="matrix" values="0 0 0 0 0 0 0 0 0 0 0 0 0 0 0 0 0 0 127 0"/>
<feOffset dx="23" dy="-23"/>
<feGaussianBlur stdDeviation="23"/>
<feColorMatrix type="matrix" values="0 0 0 0 0.933333 0 0 0 0 0.933333 0 0 0 0 0.933333 0 0 0 0.2 0"/>
<feBlend mode="normal" in2="effect2_dropShadow" result="effect3_dropShadow"/>
<feColorMatrix in="SourceAlpha" type="matrix" values="0 0 0 0 0 0 0 0 0 0 0 0 0 0 0 0 0 0 127 0"/>
<feOffset dx="-23" dy="23"/>
<feGaussianBlur stdDeviation="23"/>
<feColorMatrix type="matrix" values="0 0 0 0 0.933333 0 0 0 0 0.933333 0 0 0 0 0.933333 0 0 0 0.2 0"/>
<feBlend mode="normal" in2="effect3_dropShadow" result="effect4_dropShadow"/>
<feBlend mode="normal" in="SourceGraphic" in2="effect4_dropShadow" result="shape"/>
<feColorMatrix in="SourceAlpha" type="matrix" values="0 0 0 0 0 0 0 0 0 0 0 0 0 0 0 0 0 0 127 0" result="hardAlpha"/>
<feOffset dx="-1" dy="-1"/>
<feGaussianBlur stdDeviation="1"/>
<feComposite in2="hardAlpha" operator="arithmetic" k2="-1" k3="1"/>
<feColorMatrix type="matrix" values="0 0 0 0 0.933333 0 0 0 0 0.933333 0 0 0 0 0.933333 0 0 0 0.5 0"/>
<feBlend mode="normal" in2="shape" result="effect5_innerShadow"/>
<feColorMatrix in="SourceAlpha" type="matrix" values="0 0 0 0 0 0 0 0 0 0 0 0 0 0 0 0 0 0 127 0" result="hardAlpha"/>
<feOffset dx="1" dy="1"/>
<feGaussianBlur stdDeviation="1"/>
<feComposite in2="hardAlpha" operator="arithmetic" k2="-1" k3="1"/>
<feColorMatrix type="matrix" values="0 0 0 0 0.992157 0 0 0 0 0.454902 0 0 0 0 0.00784314 0 0 0 0.3 0"/>
<feBlend mode="normal" in2="effect5_innerShadow" result="effect6_innerShadow"/>
</filter>
<filter id="filter1_ddddii" x="-133" y="2" width="1610" height="792" filterUnits="userSpaceOnUse" color-interpolation-filters="sRGB">
<feFlood flood-opacity="0" result="BackgroundImageFix"/>
<feColorMatrix in="SourceAlpha" type="matrix" values="0 0 0 0 0 0 0 0 0 0 0 0 0 0 0 0 0 0 127 0"/>
<feOffset dx="-100" dy="-100"/>
<feGaussianBlur stdDeviation="125"/>
<feColorMatrix type="matrix" values="0 0 0 0 0.305882 0 0 0 0 0.305882 0 0 0 0 0.305882 0 0 0 0.9 0"/>
<feBlend mode="normal" in2="BackgroundImageFix" result="effect1_dropShadow"/>
<feColorMatrix in="SourceAlpha" type="matrix" values="0 0 0 0 0 0 0 0 0 0 0 0 0 0 0 0 0 0 127 0"/>
<feOffset dx="100" dy="100"/>
<feGaussianBlur stdDeviation="100"/>
<feColorMatrix type="matrix" values="0 0 0 0 1 0 0 0 0 1 0 0 0 0 1 0 0 0 0.9 0"/>
<feBlend mode="normal" in2="effect1_dropShadow" result="effect2_dropShadow"/>
<feColorMatrix in="SourceAlpha" type="matrix" values="0 0 0 0 0 0 0 0 0 0 0 0 0 0 0 0 0 0 127 0"/>
<feOffset dx="-100" dy="100"/>
<feGaussianBlur stdDeviation="100"/>
<feColorMatrix type="matrix" values="0 0 0 0 0.305882 0 0 0 0 0.305882 0 0 0 0 0.305882 0 0 0 0.2 0"/>
<feBlend mode="normal" in2="effect2_dropShadow" result="effect3_dropShadow"/>
<feColorMatrix in="SourceAlpha" type="matrix" values="0 0 0 0 0 0 0 0 0 0 0 0 0 0 0 0 0 0 127 0"/>
<feOffset dx="100" dy="-100"/>
<feGaussianBlur stdDeviation="100"/>
<feColorMatrix type="matrix" values="0 0 0 0 0.305882 0 0 0 0 0.305882 0 0 0 0 0.305882 0 0 0 0.2 0"/>
<feBlend mode="normal" in2="effect3_dropShadow" result="effect4_dropShadow"/>
<feBlend mode="normal" in="SourceGraphic" in2="effect4_dropShadow" result="shape"/>
<feColorMatrix in="SourceAlpha" type="matrix" values="0 0 0 0 0 0 0 0 0 0 0 0 0 0 0 0 0 0 127 0" result="hardAlpha"/>
<feOffset dx="4" dy="4"/>
<feGaussianBlur stdDeviation="1"/>
<feComposite in2="hardAlpha" operator="arithmetic" k2="-1" k3="1"/>
<feColorMatrix type="matrix" values="0 0 0 0 0.305882 0 0 0 0 0.305882 0 0 0 0 0.305882 0 0 0 0.5 0"/>
<feBlend mode="normal" in2="shape" result="effect5_innerShadow"/>
<feColorMatrix in="SourceAlpha" type="matrix" values="0 0 0 0 0 0 0 0 0 0 0 0 0 0 0 0 0 0 127 0" result="hardAlpha"/>
<feOffset dx="-4" dy="-4"/>
<feGaussianBlur stdDeviation="1"/>
<feComposite in2="hardAlpha" operator="arithmetic" k2="-1" k3="1"/>
<feColorMatrix type="matrix" values="0 0 0 0 1 0 0 0 0 1 0 0 0 0 1 0 0 0 0.3 0"/>
<feBlend mode="normal" in2="effect5_innerShadow" result="effect6_innerShadow"/>
</filter>
<filter id="filter2_ddddii" x="213" y="199" width="348" height="226" filterUnits="userSpaceOnUse" color-interpolation-filters="sRGB">
<feFlood flood-opacity="0" result="BackgroundImageFix"/>
<feColorMatrix in="SourceAlpha" type="matrix" values="0 0 0 0 0 0 0 0 0 0 0 0 0 0 0 0 0 0 127 0"/>
<feOffset dx="15" dy="15"/>
<feGaussianBlur stdDeviation="19"/>
<feColorMatrix type="matrix" values="0 0 0 0 0.780392 0 0 0 0 0.780392 0 0 0 0 0.780392 0 0 0 0.9 0"/>
<feBlend mode="normal" in2="BackgroundImageFix" result="effect1_dropShadow"/>
<feColorMatrix in="SourceAlpha" type="matrix" values="0 0 0 0 0 0 0 0 0 0 0 0 0 0 0 0 0 0 127 0"/>
<feOffset dx="-15" dy="-15"/>
<feGaussianBlur stdDeviation="15"/>
<feColorMatrix type="matrix" values="0 0 0 0 1 0 0 0 0 1 0 0 0 0 1 0 0 0 0.9 0"/>
<feBlend mode="normal" in2="effect1_dropShadow" result="effect2_dropShadow"/>
<feColorMatrix in="SourceAlpha" type="matrix" values="0 0 0 0 0 0 0 0 0 0 0 0 0 0 0 0 0 0 127 0"/>
<feOffset dx="15" dy="-15"/>
<feGaussianBlur stdDeviation="15"/>
<feColorMatrix type="matrix" values="0 0 0 0 0.780392 0 0 0 0 0.780392 0 0 0 0 0.780392 0 0 0 0.2 0"/>
<feBlend mode="normal" in2="effect2_dropShadow" result="effect3_dropShadow"/>
<feColorMatrix in="SourceAlpha" type="matrix" values="0 0 0 0 0 0 0 0 0 0 0 0 0 0 0 0 0 0 127 0"/>
<feOffset dx="-15" dy="15"/>
<feGaussianBlur stdDeviation="15"/>
<feColorMatrix type="matrix" values="0 0 0 0 0.780392 0 0 0 0 0.780392 0 0 0 0 0.780392 0 0 0 0.2 0"/>
<feBlend mode="normal" in2="effect3_dropShadow" result="effect4_dropShadow"/>
<feBlend mode="normal" in="SourceGraphic" in2="effect4_dropShadow" result="shape"/>
<feColorMatrix in="SourceAlpha" type="matrix" values="0 0 0 0 0 0 0 0 0 0 0 0 0 0 0 0 0 0 127 0" result="hardAlpha"/>
<feOffset dx="-1" dy="-1"/>
<feGaussianBlur stdDeviation="1"/>
<feComposite in2="hardAlpha" operator="arithmetic" k2="-1" k3="1"/>
<feColorMatrix type="matrix" values="0 0 0 0 0.780392 0 0 0 0 0.780392 0 0 0 0 0.780392 0 0 0 0.5 0"/>
<feBlend mode="normal" in2="shape" result="effect5_innerShadow"/>
<feColorMatrix in="SourceAlpha" type="matrix" values="0 0 0 0 0 0 0 0 0 0 0 0 0 0 0 0 0 0 127 0" result="hardAlpha"/>
<feOffset dx="1" dy="1"/>
<feGaussianBlur stdDeviation="1"/>
<feComposite in2="hardAlpha" operator="arithmetic" k2="-1" k3="1"/>
<feColorMatrix type="matrix" values="0 0 0 0 1 0 0 0 0 1 0 0 0 0 1 0 0 0 0.3 0"/>
<feBlend mode="normal" in2="effect5_innerShadow" result="effect6_innerShadow"/>
</filter>
<filter id="filter3_ddddii" x="213" y="422" width="348" height="226" filterUnits="userSpaceOnUse" color-interpolation-filters="sRGB">
<feFlood flood-opacity="0" result="BackgroundImageFix"/>
<feColorMatrix in="SourceAlpha" type="matrix" values="0 0 0 0 0 0 0 0 0 0 0 0 0 0 0 0 0 0 127 0"/>
<feOffset dx="15" dy="15"/>
<feGaussianBlur stdDeviation="19"/>
<feColorMatrix type="matrix" values="0 0 0 0 0.780392 0 0 0 0 0.780392 0 0 0 0 0.780392 0 0 0 0.9 0"/>
<feBlend mode="normal" in2="BackgroundImageFix" result="effect1_dropShadow"/>
<feColorMatrix in="SourceAlpha" type="matrix" values="0 0 0 0 0 0 0 0 0 0 0 0 0 0 0 0 0 0 127 0"/>
<feOffset dx="-15" dy="-15"/>
<feGaussianBlur stdDeviation="15"/>
<feColorMatrix type="matrix" values="0 0 0 0 1 0 0 0 0 1 0 0 0 0 1 0 0 0 0.9 0"/>
<feBlend mode="normal" in2="effect1_dropShadow" result="effect2_dropShadow"/>
<feColorMatrix in="SourceAlpha" type="matrix" values="0 0 0 0 0 0 0 0 0 0 0 0 0 0 0 0 0 0 127 0"/>
<feOffset dx="15" dy="-15"/>
<feGaussianBlur stdDeviation="15"/>
<feColorMatrix type="matrix" values="0 0 0 0 0.780392 0 0 0 0 0.780392 0 0 0 0 0.780392 0 0 0 0.2 0"/>
<feBlend mode="normal" in2="effect2_dropShadow" result="effect3_dropShadow"/>
<feColorMatrix in="SourceAlpha" type="matrix" values="0 0 0 0 0 0 0 0 0 0 0 0 0 0 0 0 0 0 127 0"/>
<feOffset dx="-15" dy="15"/>
<feGaussianBlur stdDeviation="15"/>
<feColorMatrix type="matrix" values="0 0 0 0 0.780392 0 0 0 0 0.780392 0 0 0 0 0.780392 0 0 0 0.2 0"/>
<feBlend mode="normal" in2="effect3_dropShadow" result="effect4_dropShadow"/>
<feBlend mode="normal" in="SourceGraphic" in2="effect4_dropShadow" result="shape"/>
<feColorMatrix in="SourceAlpha" type="matrix" values="0 0 0 0 0 0 0 0 0 0 0 0 0 0 0 0 0 0 127 0" result="hardAlpha"/>
<feOffset dx="-1" dy="-1"/>
<feGaussianBlur stdDeviation="1"/>
<feComposite in2="hardAlpha" operator="arithmetic" k2="-1" k3="1"/>
<feColorMatrix type="matrix" values="0 0 0 0 0.780392 0 0 0 0 0.780392 0 0 0 0 0.780392 0 0 0 0.5 0"/>
<feBlend mode="normal" in2="shape" result="effect5_innerShadow"/>
<feColorMatrix in="SourceAlpha" type="matrix" values="0 0 0 0 0 0 0 0 0 0 0 0 0 0 0 0 0 0 127 0" result="hardAlpha"/>
<feOffset dx="1" dy="1"/>
<feGaussianBlur stdDeviation="1"/>
<feComposite in2="hardAlpha" operator="arithmetic" k2="-1" k3="1"/>
<feColorMatrix type="matrix" values="0 0 0 0 1 0 0 0 0 1 0 0 0 0 1 0 0 0 0.3 0"/>
<feBlend mode="normal" in2="effect5_innerShadow" result="effect6_innerShadow"/>
</filter>
<filter id="filter4_ddddii" x="527" y="422" width="348" height="226" filterUnits="userSpaceOnUse" color-interpolation-filters="sRGB">
<feFlood flood-opacity="0" result="BackgroundImageFix"/>
<feColorMatrix in="SourceAlpha" type="matrix" values="0 0 0 0 0 0 0 0 0 0 0 0 0 0 0 0 0 0 127 0"/>
<feOffset dx="15" dy="15"/>
<feGaussianBlur stdDeviation="19"/>
<feColorMatrix type="matrix" values="0 0 0 0 0.780392 0 0 0 0 0.780392 0 0 0 0 0.780392 0 0 0 0.9 0"/>
<feBlend mode="normal" in2="BackgroundImageFix" result="effect1_dropShadow"/>
<feColorMatrix in="SourceAlpha" type="matrix" values="0 0 0 0 0 0 0 0 0 0 0 0 0 0 0 0 0 0 127 0"/>
<feOffset dx="-15" dy="-15"/>
<feGaussianBlur stdDeviation="15"/>
<feColorMatrix type="matrix" values="0 0 0 0 1 0 0 0 0 1 0 0 0 0 1 0 0 0 0.9 0"/>
<feBlend mode="normal" in2="effect1_dropShadow" result="effect2_dropShadow"/>
<feColorMatrix in="SourceAlpha" type="matrix" values="0 0 0 0 0 0 0 0 0 0 0 0 0 0 0 0 0 0 127 0"/>
<feOffset dx="15" dy="-15"/>
<feGaussianBlur stdDeviation="15"/>
<feColorMatrix type="matrix" values="0 0 0 0 0.780392 0 0 0 0 0.780392 0 0 0 0 0.780392 0 0 0 0.2 0"/>
<feBlend mode="normal" in2="effect2_dropShadow" result="effect3_dropShadow"/>
<feColorMatrix in="SourceAlpha" type="matrix" values="0 0 0 0 0 0 0 0 0 0 0 0 0 0 0 0 0 0 127 0"/>
<feOffset dx="-15" dy="15"/>
<feGaussianBlur stdDeviation="15"/>
<feColorMatrix type="matrix" values="0 0 0 0 0.780392 0 0 0 0 0.780392 0 0 0 0 0.780392 0 0 0 0.2 0"/>
<feBlend mode="normal" in2="effect3_dropShadow" result="effect4_dropShadow"/>
<feBlend mode="normal" in="SourceGraphic" in2="effect4_dropShadow" result="shape"/>
<feColorMatrix in="SourceAlpha" type="matrix" values="0 0 0 0 0 0 0 0 0 0 0 0 0 0 0 0 0 0 127 0" result="hardAlpha"/>
<feOffset dx="-1" dy="-1"/>
<feGaussianBlur stdDeviation="1"/>
<feComposite in2="hardAlpha" operator="arithmetic" k2="-1" k3="1"/>
<feColorMatrix type="matrix" values="0 0 0 0 0.780392 0 0 0 0 0.780392 0 0 0 0 0.780392 0 0 0 0.5 0"/>
<feBlend mode="normal" in2="shape" result="effect5_innerShadow"/>
<feColorMatrix in="SourceAlpha" type="matrix" values="0 0 0 0 0 0 0 0 0 0 0 0 0 0 0 0 0 0 127 0" result="hardAlpha"/>
<feOffset dx="1" dy="1"/>
<feGaussianBlur stdDeviation="1"/>
<feComposite in2="hardAlpha" operator="arithmetic" k2="-1" k3="1"/>
<feColorMatrix type="matrix" values="0 0 0 0 1 0 0 0 0 1 0 0 0 0 1 0 0 0 0.3 0"/>
<feBlend mode="normal" in2="effect5_innerShadow" result="effect6_innerShadow"/>
</filter>
<filter id="filter5_ddddii" x="527" y="204" width="348" height="226" filterUnits="userSpaceOnUse" color-interpolation-filters="sRGB">
<feFlood flood-opacity="0" result="BackgroundImageFix"/>
<feColorMatrix in="SourceAlpha" type="matrix" values="0 0 0 0 0 0 0 0 0 0 0 0 0 0 0 0 0 0 127 0"/>
<feOffset dx="15" dy="15"/>
<feGaussianBlur stdDeviation="19"/>
<feColorMatrix type="matrix" values="0 0 0 0 0.780392 0 0 0 0 0.780392 0 0 0 0 0.780392 0 0 0 0.9 0"/>
<feBlend mode="normal" in2="BackgroundImageFix" result="effect1_dropShadow"/>
<feColorMatrix in="SourceAlpha" type="matrix" values="0 0 0 0 0 0 0 0 0 0 0 0 0 0 0 0 0 0 127 0"/>
<feOffset dx="-15" dy="-15"/>
<feGaussianBlur stdDeviation="15"/>
<feColorMatrix type="matrix" values="0 0 0 0 1 0 0 0 0 1 0 0 0 0 1 0 0 0 0.9 0"/>
<feBlend mode="normal" in2="effect1_dropShadow" result="effect2_dropShadow"/>
<feColorMatrix in="SourceAlpha" type="matrix" values="0 0 0 0 0 0 0 0 0 0 0 0 0 0 0 0 0 0 127 0"/>
<feOffset dx="15" dy="-15"/>
<feGaussianBlur stdDeviation="15"/>
<feColorMatrix type="matrix" values="0 0 0 0 0.780392 0 0 0 0 0.780392 0 0 0 0 0.780392 0 0 0 0.2 0"/>
<feBlend mode="normal" in2="effect2_dropShadow" result="effect3_dropShadow"/>
<feColorMatrix in="SourceAlpha" type="matrix" values="0 0 0 0 0 0 0 0 0 0 0 0 0 0 0 0 0 0 127 0"/>
<feOffset dx="-15" dy="15"/>
<feGaussianBlur stdDeviation="15"/>
<feColorMatrix type="matrix" values="0 0 0 0 0.780392 0 0 0 0 0.780392 0 0 0 0 0.780392 0 0 0 0.2 0"/>
<feBlend mode="normal" in2="effect3_dropShadow" result="effect4_dropShadow"/>
<feBlend mode="normal" in="SourceGraphic" in2="effect4_dropShadow" result="shape"/>
<feColorMatrix in="SourceAlpha" type="matrix" values="0 0 0 0 0 0 0 0 0 0 0 0 0 0 0 0 0 0 127 0" result="hardAlpha"/>
<feOffset dx="-1" dy="-1"/>
<feGaussianBlur stdDeviation="1"/>
<feComposite in2="hardAlpha" operator="arithmetic" k2="-1" k3="1"/>
<feColorMatrix type="matrix" values="0 0 0 0 0.780392 0 0 0 0 0.780392 0 0 0 0 0.780392 0 0 0 0.5 0"/>
<feBlend mode="normal" in2="shape" result="effect5_innerShadow"/>
<feColorMatrix in="SourceAlpha" type="matrix" values="0 0 0 0 0 0 0 0 0 0 0 0 0 0 0 0 0 0 127 0" result="hardAlpha"/>
<feOffset dx="1" dy="1"/>
<feGaussianBlur stdDeviation="1"/>
<feComposite in2="hardAlpha" operator="arithmetic" k2="-1" k3="1"/>
<feColorMatrix type="matrix" values="0 0 0 0 1 0 0 0 0 1 0 0 0 0 1 0 0 0 0.3 0"/>
<feBlend mode="normal" in2="effect5_innerShadow" result="effect6_innerShadow"/>
</filter>
<filter id="filter6_ddddii" x="841" y="199" width="348" height="226" filterUnits="userSpaceOnUse" color-interpolation-filters="sRGB">
<feFlood flood-opacity="0" result="BackgroundImageFix"/>
<feColorMatrix in="SourceAlpha" type="matrix" values="0 0 0 0 0 0 0 0 0 0 0 0 0 0 0 0 0 0 127 0"/>
<feOffset dx="15" dy="15"/>
<feGaussianBlur stdDeviation="19"/>
<feColorMatrix type="matrix" values="0 0 0 0 0.780392 0 0 0 0 0.780392 0 0 0 0 0.780392 0 0 0 0.9 0"/>
<feBlend mode="normal" in2="BackgroundImageFix" result="effect1_dropShadow"/>
<feColorMatrix in="SourceAlpha" type="matrix" values="0 0 0 0 0 0 0 0 0 0 0 0 0 0 0 0 0 0 127 0"/>
<feOffset dx="-15" dy="-15"/>
<feGaussianBlur stdDeviation="15"/>
<feColorMatrix type="matrix" values="0 0 0 0 1 0 0 0 0 1 0 0 0 0 1 0 0 0 0.9 0"/>
<feBlend mode="normal" in2="effect1_dropShadow" result="effect2_dropShadow"/>
<feColorMatrix in="SourceAlpha" type="matrix" values="0 0 0 0 0 0 0 0 0 0 0 0 0 0 0 0 0 0 127 0"/>
<feOffset dx="15" dy="-15"/>
<feGaussianBlur stdDeviation="15"/>
<feColorMatrix type="matrix" values="0 0 0 0 0.780392 0 0 0 0 0.780392 0 0 0 0 0.780392 0 0 0 0.2 0"/>
<feBlend mode="normal" in2="effect2_dropShadow" result="effect3_dropShadow"/>
<feColorMatrix in="SourceAlpha" type="matrix" values="0 0 0 0 0 0 0 0 0 0 0 0 0 0 0 0 0 0 127 0"/>
<feOffset dx="-15" dy="15"/>
<feGaussianBlur stdDeviation="15"/>
<feColorMatrix type="matrix" values="0 0 0 0 0.780392 0 0 0 0 0.780392 0 0 0 0 0.780392 0 0 0 0.2 0"/>
<feBlend mode="normal" in2="effect3_dropShadow" result="effect4_dropShadow"/>
<feBlend mode="normal" in="SourceGraphic" in2="effect4_dropShadow" result="shape"/>
<feColorMatrix in="SourceAlpha" type="matrix" values="0 0 0 0 0 0 0 0 0 0 0 0 0 0 0 0 0 0 127 0" result="hardAlpha"/>
<feOffset dx="-1" dy="-1"/>
<feGaussianBlur stdDeviation="1"/>
<feComposite in2="hardAlpha" operator="arithmetic" k2="-1" k3="1"/>
<feColorMatrix type="matrix" values="0 0 0 0 0.780392 0 0 0 0 0.780392 0 0 0 0 0.780392 0 0 0 0.5 0"/>
<feBlend mode="normal" in2="shape" result="effect5_innerShadow"/>
<feColorMatrix in="SourceAlpha" type="matrix" values="0 0 0 0 0 0 0 0 0 0 0 0 0 0 0 0 0 0 127 0" result="hardAlpha"/>
<feOffset dx="1" dy="1"/>
<feGaussianBlur stdDeviation="1"/>
<feComposite in2="hardAlpha" operator="arithmetic" k2="-1" k3="1"/>
<feColorMatrix type="matrix" values="0 0 0 0 1 0 0 0 0 1 0 0 0 0 1 0 0 0 0.3 0"/>
<feBlend mode="normal" in2="effect5_innerShadow" result="effect6_innerShadow"/>
</filter>
<filter id="filter7_ddddii" x="841" y="422" width="348" height="226" filterUnits="userSpaceOnUse" color-interpolation-filters="sRGB">
<feFlood flood-opacity="0" result="BackgroundImageFix"/>
<feColorMatrix in="SourceAlpha" type="matrix" values="0 0 0 0 0 0 0 0 0 0 0 0 0 0 0 0 0 0 127 0"/>
<feOffset dx="15" dy="15"/>
<feGaussianBlur stdDeviation="19"/>
<feColorMatrix type="matrix" values="0 0 0 0 0.992157 0 0 0 0 0.454902 0 0 0 0 0.00784314 0 0 0 0.3 0"/>
<feBlend mode="normal" in2="BackgroundImageFix" result="effect1_dropShadow"/>
<feColorMatrix in="SourceAlpha" type="matrix" values="0 0 0 0 0 0 0 0 0 0 0 0 0 0 0 0 0 0 127 0"/>
<feOffset dx="-15" dy="-15"/>
<feGaussianBlur stdDeviation="15"/>
<feColorMatrix type="matrix" values="0 0 0 0 1 0 0 0 0 1 0 0 0 0 1 0 0 0 0.2 0"/>
<feBlend mode="normal" in2="effect1_dropShadow" result="effect2_dropShadow"/>
<feColorMatrix in="SourceAlpha" type="matrix" values="0 0 0 0 0 0 0 0 0 0 0 0 0 0 0 0 0 0 127 0"/>
<feOffset dx="15" dy="-15"/>
<feGaussianBlur stdDeviation="15"/>
<feColorMatrix type="matrix" values="0 0 0 0 0.780392 0 0 0 0 0.780392 0 0 0 0 0.780392 0 0 0 0.2 0"/>
<feBlend mode="normal" in2="effect2_dropShadow" result="effect3_dropShadow"/>
<feColorMatrix in="SourceAlpha" type="matrix" values="0 0 0 0 0 0 0 0 0 0 0 0 0 0 0 0 0 0 127 0"/>
<feOffset dx="-15" dy="15"/>
<feGaussianBlur stdDeviation="15"/>
<feColorMatrix type="matrix" values="0 0 0 0 0.780392 0 0 0 0 0.780392 0 0 0 0 0.780392 0 0 0 0.2 0"/>
<feBlend mode="normal" in2="effect3_dropShadow" result="effect4_dropShadow"/>
<feBlend mode="normal" in="SourceGraphic" in2="effect4_dropShadow" result="shape"/>
<feColorMatrix in="SourceAlpha" type="matrix" values="0 0 0 0 0 0 0 0 0 0 0 0 0 0 0 0 0 0 127 0" result="hardAlpha"/>
<feOffset dx="-1" dy="-1"/>
<feGaussianBlur stdDeviation="1"/>
<feComposite in2="hardAlpha" operator="arithmetic" k2="-1" k3="1"/>
<feColorMatrix type="matrix" values="0 0 0 0 0.780392 0 0 0 0 0.780392 0 0 0 0 0.780392 0 0 0 0.5 0"/>
<feBlend mode="normal" in2="shape" result="effect5_innerShadow"/>
<feColorMatrix in="SourceAlpha" type="matrix" values="0 0 0 0 0 0 0 0 0 0 0 0 0 0 0 0 0 0 127 0" result="hardAlpha"/>
<feOffset dx="1" dy="1"/>
<feGaussianBlur stdDeviation="1"/>
<feComposite in2="hardAlpha" operator="arithmetic" k2="-1" k3="1"/>
<feColorMatrix type="matrix" values="0 0 0 0 1 0 0 0 0 1 0 0 0 0 1 0 0 0 0.3 0"/>
<feBlend mode="normal" in2="effect5_innerShadow" result="effect6_innerShadow"/>
</filter>
<filter id="filter8_ddddii" x="28" y="0" width="660" height="660" filterUnits="userSpaceOnUse" color-interpolation-filters="sRGB">
<feFlood flood-opacity="0" result="BackgroundImageFix"/>
<feColorMatrix in="SourceAlpha" type="matrix" values="0 0 0 0 0 0 0 0 0 0 0 0 0 0 0 0 0 0 127 0"/>
<feOffset dx="-100" dy="-100"/>
<feGaussianBlur stdDeviation="125"/>
<feColorMatrix type="matrix" values="0 0 0 0 0.305882 0 0 0 0 0.305882 0 0 0 0 0.305882 0 0 0 0.9 0"/>
<feBlend mode="normal" in2="BackgroundImageFix" result="effect1_dropShadow"/>
<feColorMatrix in="SourceAlpha" type="matrix" values="0 0 0 0 0 0 0 0 0 0 0 0 0 0 0 0 0 0 127 0"/>
<feOffset dx="100" dy="100"/>
<feGaussianBlur stdDeviation="100"/>
<feColorMatrix type="matrix" values="0 0 0 0 1 0 0 0 0 1 0 0 0 0 1 0 0 0 0.9 0"/>
<feBlend mode="normal" in2="effect1_dropShadow" result="effect2_dropShadow"/>
<feColorMatrix in="SourceAlpha" type="matrix" values="0 0 0 0 0 0 0 0 0 0 0 0 0 0 0 0 0 0 127 0"/>
<feOffset dx="-100" dy="100"/>
<feGaussianBlur stdDeviation="100"/>
<feColorMatrix type="matrix" values="0 0 0 0 0.305882 0 0 0 0 0.305882 0 0 0 0 0.305882 0 0 0 0.2 0"/>
<feBlend mode="normal" in2="effect2_dropShadow" result="effect3_dropShadow"/>
<feColorMatrix in="SourceAlpha" type="matrix" values="0 0 0 0 0 0 0 0 0 0 0 0 0 0 0 0 0 0 127 0"/>
<feOffset dx="100" dy="-100"/>
<feGaussianBlur stdDeviation="100"/>
<feColorMatrix type="matrix" values="0 0 0 0 0.305882 0 0 0 0 0.305882 0 0 0 0 0.305882 0 0 0 0.2 0"/>
<feBlend mode="normal" in2="effect3_dropShadow" result="effect4_dropShadow"/>
<feBlend mode="normal" in="SourceGraphic" in2="effect4_dropShadow" result="shape"/>
<feColorMatrix in="SourceAlpha" type="matrix" values="0 0 0 0 0 0 0 0 0 0 0 0 0 0 0 0 0 0 127 0" result="hardAlpha"/>
<feOffset dx="4" dy="4"/>
<feGaussianBlur stdDeviation="1"/>
<feComposite in2="hardAlpha" operator="arithmetic" k2="-1" k3="1"/>
<feColorMatrix type="matrix" values="0 0 0 0 0.305882 0 0 0 0 0.305882 0 0 0 0 0.305882 0 0 0 0.5 0"/>
<feBlend mode="normal" in2="shape" result="effect5_innerShadow"/>
<feColorMatrix in="SourceAlpha" type="matrix" values="0 0 0 0 0 0 0 0 0 0 0 0 0 0 0 0 0 0 127 0" result="hardAlpha"/>
<feOffset dx="-4" dy="-4"/>
<feGaussianBlur stdDeviation="1"/>
<feComposite in2="hardAlpha" operator="arithmetic" k2="-1" k3="1"/>
<feColorMatrix type="matrix" values="0 0 0 0 1 0 0 0 0 1 0 0 0 0 1 0 0 0 0.3 0"/>
<feBlend mode="normal" in2="effect5_innerShadow" result="effect6_innerShadow"/>
</filter>
<filter id="filter9_ddddii" x="342" y="0" width="660" height="660" filterUnits="userSpaceOnUse" color-interpolation-filters="sRGB">
<feFlood flood-opacity="0" result="BackgroundImageFix"/>
<feColorMatrix in="SourceAlpha" type="matrix" values="0 0 0 0 0 0 0 0 0 0 0 0 0 0 0 0 0 0 127 0"/>
<feOffset dx="-100" dy="-100"/>
<feGaussianBlur stdDeviation="125"/>
<feColorMatrix type="matrix" values="0 0 0 0 0.305882 0 0 0 0 0.305882 0 0 0 0 0.305882 0 0 0 0.9 0"/>
<feBlend mode="normal" in2="BackgroundImageFix" result="effect1_dropShadow"/>
<feColorMatrix in="SourceAlpha" type="matrix" values="0 0 0 0 0 0 0 0 0 0 0 0 0 0 0 0 0 0 127 0"/>
<feOffset dx="100" dy="100"/>
<feGaussianBlur stdDeviation="100"/>
<feColorMatrix type="matrix" values="0 0 0 0 1 0 0 0 0 1 0 0 0 0 1 0 0 0 0.9 0"/>
<feBlend mode="normal" in2="effect1_dropShadow" result="effect2_dropShadow"/>
<feColorMatrix in="SourceAlpha" type="matrix" values="0 0 0 0 0 0 0 0 0 0 0 0 0 0 0 0 0 0 127 0"/>
<feOffset dx="-100" dy="100"/>
<feGaussianBlur stdDeviation="100"/>
<feColorMatrix type="matrix" values="0 0 0 0 0.305882 0 0 0 0 0.305882 0 0 0 0 0.305882 0 0 0 0.2 0"/>
<feBlend mode="normal" in2="effect2_dropShadow" result="effect3_dropShadow"/>
<feColorMatrix in="SourceAlpha" type="matrix" values="0 0 0 0 0 0 0 0 0 0 0 0 0 0 0 0 0 0 127 0"/>
<feOffset dx="100" dy="-100"/>
<feGaussianBlur stdDeviation="100"/>
<feColorMatrix type="matrix" values="0 0 0 0 0.305882 0 0 0 0 0.305882 0 0 0 0 0.305882 0 0 0 0.2 0"/>
<feBlend mode="normal" in2="effect3_dropShadow" result="effect4_dropShadow"/>
<feBlend mode="normal" in="SourceGraphic" in2="effect4_dropShadow" result="shape"/>
<feColorMatrix in="SourceAlpha" type="matrix" values="0 0 0 0 0 0 0 0 0 0 0 0 0 0 0 0 0 0 127 0" result="hardAlpha"/>
<feOffset dx="4" dy="4"/>
<feGaussianBlur stdDeviation="1"/>
<feComposite in2="hardAlpha" operator="arithmetic" k2="-1" k3="1"/>
<feColorMatrix type="matrix" values="0 0 0 0 0.305882 0 0 0 0 0.305882 0 0 0 0 0.305882 0 0 0 0.5 0"/>
<feBlend mode="normal" in2="shape" result="effect5_innerShadow"/>
<feColorMatrix in="SourceAlpha" type="matrix" values="0 0 0 0 0 0 0 0 0 0 0 0 0 0 0 0 0 0 127 0" result="hardAlpha"/>
<feOffset dx="-4" dy="-4"/>
<feGaussianBlur stdDeviation="1"/>
<feComposite in2="hardAlpha" operator="arithmetic" k2="-1" k3="1"/>
<feColorMatrix type="matrix" values="0 0 0 0 1 0 0 0 0 1 0 0 0 0 1 0 0 0 0.3 0"/>
<feBlend mode="normal" in2="effect5_innerShadow" result="effect6_innerShadow"/>
</filter>
<filter id="filter10_ddddii" x="656" y="0" width="660" height="660" filterUnits="userSpaceOnUse" color-interpolation-filters="sRGB">
<feFlood flood-opacity="0" result="BackgroundImageFix"/>
<feColorMatrix in="SourceAlpha" type="matrix" values="0 0 0 0 0 0 0 0 0 0 0 0 0 0 0 0 0 0 127 0"/>
<feOffset dx="-100" dy="-100"/>
<feGaussianBlur stdDeviation="125"/>
<feColorMatrix type="matrix" values="0 0 0 0 0.305882 0 0 0 0 0.305882 0 0 0 0 0.305882 0 0 0 0.9 0"/>
<feBlend mode="normal" in2="BackgroundImageFix" result="effect1_dropShadow"/>
<feColorMatrix in="SourceAlpha" type="matrix" values="0 0 0 0 0 0 0 0 0 0 0 0 0 0 0 0 0 0 127 0"/>
<feOffset dx="100" dy="100"/>
<feGaussianBlur stdDeviation="100"/>
<feColorMatrix type="matrix" values="0 0 0 0 1 0 0 0 0 1 0 0 0 0 1 0 0 0 0.9 0"/>
<feBlend mode="normal" in2="effect1_dropShadow" result="effect2_dropShadow"/>
<feColorMatrix in="SourceAlpha" type="matrix" values="0 0 0 0 0 0 0 0 0 0 0 0 0 0 0 0 0 0 127 0"/>
<feOffset dx="-100" dy="100"/>
<feGaussianBlur stdDeviation="100"/>
<feColorMatrix type="matrix" values="0 0 0 0 0.305882 0 0 0 0 0.305882 0 0 0 0 0.305882 0 0 0 0.2 0"/>
<feBlend mode="normal" in2="effect2_dropShadow" result="effect3_dropShadow"/>
<feColorMatrix in="SourceAlpha" type="matrix" values="0 0 0 0 0 0 0 0 0 0 0 0 0 0 0 0 0 0 127 0"/>
<feOffset dx="100" dy="-100"/>
<feGaussianBlur stdDeviation="100"/>
<feColorMatrix type="matrix" values="0 0 0 0 0.305882 0 0 0 0 0.305882 0 0 0 0 0.305882 0 0 0 0.2 0"/>
<feBlend mode="normal" in2="effect3_dropShadow" result="effect4_dropShadow"/>
<feBlend mode="normal" in="SourceGraphic" in2="effect4_dropShadow" result="shape"/>
<feColorMatrix in="SourceAlpha" type="matrix" values="0 0 0 0 0 0 0 0 0 0 0 0 0 0 0 0 0 0 127 0" result="hardAlpha"/>
<feOffset dx="4" dy="4"/>
<feGaussianBlur stdDeviation="1"/>
<feComposite in2="hardAlpha" operator="arithmetic" k2="-1" k3="1"/>
<feColorMatrix type="matrix" values="0 0 0 0 0.305882 0 0 0 0 0.305882 0 0 0 0 0.305882 0 0 0 0.5 0"/>
<feBlend mode="normal" in2="shape" result="effect5_innerShadow"/>
<feColorMatrix in="SourceAlpha" type="matrix" values="0 0 0 0 0 0 0 0 0 0 0 0 0 0 0 0 0 0 127 0" result="hardAlpha"/>
<feOffset dx="-4" dy="-4"/>
<feGaussianBlur stdDeviation="1"/>
<feComposite in2="hardAlpha" operator="arithmetic" k2="-1" k3="1"/>
<feColorMatrix type="matrix" values="0 0 0 0 1 0 0 0 0 1 0 0 0 0 1 0 0 0 0.3 0"/>
<feBlend mode="normal" in2="effect5_innerShadow" result="effect6_innerShadow"/>
</filter>
<filter id="filter11_ddddii" x="656" y="134" width="660" height="660" filterUnits="userSpaceOnUse" color-interpolation-filters="sRGB">
<feFlood flood-opacity="0" result="BackgroundImageFix"/>
<feColorMatrix in="SourceAlpha" type="matrix" values="0 0 0 0 0 0 0 0 0 0 0 0 0 0 0 0 0 0 127 0"/>
<feOffset dx="-100" dy="-100"/>
<feGaussianBlur stdDeviation="125"/>
<feColorMatrix type="matrix" values="0 0 0 0 0.305882 0 0 0 0 0.305882 0 0 0 0 0.305882 0 0 0 0.9 0"/>
<feBlend mode="normal" in2="BackgroundImageFix" result="effect1_dropShadow"/>
<feColorMatrix in="SourceAlpha" type="matrix" values="0 0 0 0 0 0 0 0 0 0 0 0 0 0 0 0 0 0 127 0"/>
<feOffset dx="100" dy="100"/>
<feGaussianBlur stdDeviation="100"/>
<feColorMatrix type="matrix" values="0 0 0 0 1 0 0 0 0 1 0 0 0 0 1 0 0 0 0.9 0"/>
<feBlend mode="normal" in2="effect1_dropShadow" result="effect2_dropShadow"/>
<feColorMatrix in="SourceAlpha" type="matrix" values="0 0 0 0 0 0 0 0 0 0 0 0 0 0 0 0 0 0 127 0"/>
<feOffset dx="-100" dy="100"/>
<feGaussianBlur stdDeviation="100"/>
<feColorMatrix type="matrix" values="0 0 0 0 0.305882 0 0 0 0 0.305882 0 0 0 0 0.305882 0 0 0 0.2 0"/>
<feBlend mode="normal" in2="effect2_dropShadow" result="effect3_dropShadow"/>
<feColorMatrix in="SourceAlpha" type="matrix" values="0 0 0 0 0 0 0 0 0 0 0 0 0 0 0 0 0 0 127 0"/>
<feOffset dx="100" dy="-100"/>
<feGaussianBlur stdDeviation="100"/>
<feColorMatrix type="matrix" values="0 0 0 0 0.305882 0 0 0 0 0.305882 0 0 0 0 0.305882 0 0 0 0.2 0"/>
<feBlend mode="normal" in2="effect3_dropShadow" result="effect4_dropShadow"/>
<feBlend mode="normal" in="SourceGraphic" in2="effect4_dropShadow" result="shape"/>
<feColorMatrix in="SourceAlpha" type="matrix" values="0 0 0 0 0 0 0 0 0 0 0 0 0 0 0 0 0 0 127 0" result="hardAlpha"/>
<feOffset dx="4" dy="4"/>
<feGaussianBlur stdDeviation="1"/>
<feComposite in2="hardAlpha" operator="arithmetic" k2="-1" k3="1"/>
<feColorMatrix type="matrix" values="0 0 0 0 0.305882 0 0 0 0 0.305882 0 0 0 0 0.305882 0 0 0 0.5 0"/>
<feBlend mode="normal" in2="shape" result="effect5_innerShadow"/>
<feColorMatrix in="SourceAlpha" type="matrix" values="0 0 0 0 0 0 0 0 0 0 0 0 0 0 0 0 0 0 127 0" result="hardAlpha"/>
<feOffset dx="-4" dy="-4"/>
<feGaussianBlur stdDeviation="1"/>
<feComposite in2="hardAlpha" operator="arithmetic" k2="-1" k3="1"/>
<feColorMatrix type="matrix" values="0 0 0 0 1 0 0 0 0 1 0 0 0 0 1 0 0 0 0.3 0"/>
<feBlend mode="normal" in2="effect5_innerShadow" result="effect6_innerShadow"/>
</filter>
<filter id="filter12_ddddii" x="342" y="134" width="660" height="660" filterUnits="userSpaceOnUse" color-interpolation-filters="sRGB">
<feFlood flood-opacity="0" result="BackgroundImageFix"/>
<feColorMatrix in="SourceAlpha" type="matrix" values="0 0 0 0 0 0 0 0 0 0 0 0 0 0 0 0 0 0 127 0"/>
<feOffset dx="-100" dy="-100"/>
<feGaussianBlur stdDeviation="125"/>
<feColorMatrix type="matrix" values="0 0 0 0 0.305882 0 0 0 0 0.305882 0 0 0 0 0.305882 0 0 0 0.9 0"/>
<feBlend mode="normal" in2="BackgroundImageFix" result="effect1_dropShadow"/>
<feColorMatrix in="SourceAlpha" type="matrix" values="0 0 0 0 0 0 0 0 0 0 0 0 0 0 0 0 0 0 127 0"/>
<feOffset dx="100" dy="100"/>
<feGaussianBlur stdDeviation="100"/>
<feColorMatrix type="matrix" values="0 0 0 0 1 0 0 0 0 1 0 0 0 0 1 0 0 0 0.9 0"/>
<feBlend mode="normal" in2="effect1_dropShadow" result="effect2_dropShadow"/>
<feColorMatrix in="SourceAlpha" type="matrix" values="0 0 0 0 0 0 0 0 0 0 0 0 0 0 0 0 0 0 127 0"/>
<feOffset dx="-100" dy="100"/>
<feGaussianBlur stdDeviation="100"/>
<feColorMatrix type="matrix" values="0 0 0 0 0.305882 0 0 0 0 0.305882 0 0 0 0 0.305882 0 0 0 0.2 0"/>
<feBlend mode="normal" in2="effect2_dropShadow" result="effect3_dropShadow"/>
<feColorMatrix in="SourceAlpha" type="matrix" values="0 0 0 0 0 0 0 0 0 0 0 0 0 0 0 0 0 0 127 0"/>
<feOffset dx="100" dy="-100"/>
<feGaussianBlur stdDeviation="100"/>
<feColorMatrix type="matrix" values="0 0 0 0 0.305882 0 0 0 0 0.305882 0 0 0 0 0.305882 0 0 0 0.2 0"/>
<feBlend mode="normal" in2="effect3_dropShadow" result="effect4_dropShadow"/>
<feBlend mode="normal" in="SourceGraphic" in2="effect4_dropShadow" result="shape"/>
<feColorMatrix in="SourceAlpha" type="matrix" values="0 0 0 0 0 0 0 0 0 0 0 0 0 0 0 0 0 0 127 0" result="hardAlpha"/>
<feOffset dx="4" dy="4"/>
<feGaussianBlur stdDeviation="1"/>
<feComposite in2="hardAlpha" operator="arithmetic" k2="-1" k3="1"/>
<feColorMatrix type="matrix" values="0 0 0 0 0.305882 0 0 0 0 0.305882 0 0 0 0 0.305882 0 0 0 0.5 0"/>
<feBlend mode="normal" in2="shape" result="effect5_innerShadow"/>
<feColorMatrix in="SourceAlpha" type="matrix" values="0 0 0 0 0 0 0 0 0 0 0 0 0 0 0 0 0 0 127 0" result="hardAlpha"/>
<feOffset dx="-4" dy="-4"/>
<feGaussianBlur stdDeviation="1"/>
<feComposite in2="hardAlpha" operator="arithmetic" k2="-1" k3="1"/>
<feColorMatrix type="matrix" values="0 0 0 0 1 0 0 0 0 1 0 0 0 0 1 0 0 0 0.3 0"/>
<feBlend mode="normal" in2="effect5_innerShadow" result="effect6_innerShadow"/>
</filter>
<filter id="filter13_ddddii" x="28" y="134" width="660" height="660" filterUnits="userSpaceOnUse" color-interpolation-filters="sRGB">
<feFlood flood-opacity="0" result="BackgroundImageFix"/>
<feColorMatrix in="SourceAlpha" type="matrix" values="0 0 0 0 0 0 0 0 0 0 0 0 0 0 0 0 0 0 127 0"/>
<feOffset dx="-100" dy="-100"/>
<feGaussianBlur stdDeviation="125"/>
<feColorMatrix type="matrix" values="0 0 0 0 0.305882 0 0 0 0 0.305882 0 0 0 0 0.305882 0 0 0 0.9 0"/>
<feBlend mode="normal" in2="BackgroundImageFix" result="effect1_dropShadow"/>
<feColorMatrix in="SourceAlpha" type="matrix" values="0 0 0 0 0 0 0 0 0 0 0 0 0 0 0 0 0 0 127 0"/>
<feOffset dx="100" dy="100"/>
<feGaussianBlur stdDeviation="100"/>
<feColorMatrix type="matrix" values="0 0 0 0 1 0 0 0 0 1 0 0 0 0 1 0 0 0 0.9 0"/>
<feBlend mode="normal" in2="effect1_dropShadow" result="effect2_dropShadow"/>
<feColorMatrix in="SourceAlpha" type="matrix" values="0 0 0 0 0 0 0 0 0 0 0 0 0 0 0 0 0 0 127 0"/>
<feOffset dx="-100" dy="100"/>
<feGaussianBlur stdDeviation="100"/>
<feColorMatrix type="matrix" values="0 0 0 0 0.305882 0 0 0 0 0.305882 0 0 0 0 0.305882 0 0 0 0.2 0"/>
<feBlend mode="normal" in2="effect2_dropShadow" result="effect3_dropShadow"/>
<feColorMatrix in="SourceAlpha" type="matrix" values="0 0 0 0 0 0 0 0 0 0 0 0 0 0 0 0 0 0 127 0"/>
<feOffset dx="100" dy="-100"/>
<feGaussianBlur stdDeviation="100"/>
<feColorMatrix type="matrix" values="0 0 0 0 0.305882 0 0 0 0 0.305882 0 0 0 0 0.305882 0 0 0 0.2 0"/>
<feBlend mode="normal" in2="effect3_dropShadow" result="effect4_dropShadow"/>
<feBlend mode="normal" in="SourceGraphic" in2="effect4_dropShadow" result="shape"/>
<feColorMatrix in="SourceAlpha" type="matrix" values="0 0 0 0 0 0 0 0 0 0 0 0 0 0 0 0 0 0 127 0" result="hardAlpha"/>
<feOffset dx="4" dy="4"/>
<feGaussianBlur stdDeviation="1"/>
<feComposite in2="hardAlpha" operator="arithmetic" k2="-1" k3="1"/>
<feColorMatrix type="matrix" values="0 0 0 0 0.305882 0 0 0 0 0.305882 0 0 0 0 0.305882 0 0 0 0.5 0"/>
<feBlend mode="normal" in2="shape" result="effect5_innerShadow"/>
<feColorMatrix in="SourceAlpha" type="matrix" values="0 0 0 0 0 0 0 0 0 0 0 0 0 0 0 0 0 0 127 0" result="hardAlpha"/>
<feOffset dx="-4" dy="-4"/>
<feGaussianBlur stdDeviation="1"/>
<feComposite in2="hardAlpha" operator="arithmetic" k2="-1" k3="1"/>
<feColorMatrix type="matrix" values="0 0 0 0 1 0 0 0 0 1 0 0 0 0 1 0 0 0 0.3 0"/>
<feBlend mode="normal" in2="effect5_innerShadow" result="effect6_innerShadow"/>
</filter>
</defs>
</svg>
