<svg width="342" height="85" viewBox="0 0 342 85" fill="none" xmlns="http://www.w3.org/2000/svg">
<path d="M96.7842 44C97.7976 41.2533 98.3042 38.6667 98.3042 36.24C98.3042 34.88 98.1309 33.72 97.7842 32.76C97.2509 31.3733 96.4242 30.68 95.3042 30.68C94.1042 30.68 92.8242 31.4533 91.4642 33C90.1042 34.5467 88.9576 36.56 88.0242 39.04C87.0109 41.7867 86.5042 44.3733 86.5042 46.8C86.5042 48.16 86.6776 49.32 87.0242 50.28C87.5576 51.6667 88.3842 52.36 89.5042 52.36C90.7042 52.36 91.9709 51.5867 93.3042 50.04C94.6642 48.4933 95.8242 46.48 96.7842 44ZM82.7842 28.88C83.2376 28.9333 83.6909 28.96 84.1442 28.96C85.6909 28.96 86.9176 28.6267 87.8242 27.96C90.1442 26.12 92.4776 25.2 94.8242 25.2C96.2109 25.2 97.5176 25.5333 98.7442 26.2C100.504 27.16 101.864 28.6667 102.824 30.72C103.811 32.7733 104.304 35.1067 104.304 37.72C104.304 40.8133 103.638 43.8533 102.304 46.84C100.891 50.04 98.9976 52.6 96.6242 54.52C94.2509 56.44 91.8376 57.4 89.3842 57.4C87.9976 57.4 86.7042 57.0667 85.5042 56.4C83.7442 55.44 82.3709 53.9333 81.3842 51.88C80.4242 49.8267 79.9442 47.4933 79.9442 44.88C79.9442 41.7867 80.6109 38.7467 81.9442 35.76L82.8242 34.24C83.2242 34.3467 83.6109 34.4 83.9842 34.4C86.0376 34.4 87.6376 33.2533 88.7842 30.96C87.7442 32.1867 85.9442 32.8 83.3842 32.8C82.8776 32.8 82.3442 32.7733 81.7842 32.72L82.7842 28.88ZM109.482 51.6C109.642 51.7333 109.869 51.8 110.162 51.8C110.642 51.8 111.216 51.64 111.882 51.32C112.682 50.92 113.336 50.12 113.842 48.92L116.922 37.12H122.442L117.522 56.16H111.962L112.282 55C110.682 55.8533 109.056 56.28 107.402 56.28C107.056 56.28 106.762 56.2667 106.522 56.24C104.336 55.68 103.242 54.08 103.242 51.44C103.242 50.9867 103.282 50.56 103.362 50.16L106.802 37.12H112.322L108.882 50.16C108.856 50.2933 108.842 50.4267 108.842 50.56C108.842 51.0133 109.056 51.36 109.482 51.6ZM135.833 37.36L134.593 42.56C133.9 42.16 133.247 41.96 132.633 41.96C131.22 41.96 130.113 42.9333 129.313 44.88L126.313 56H120.793L125.873 37.12H131.393L131.073 38.32C132.38 37.4933 133.567 37.08 134.633 37.08C135.113 37.08 135.513 37.1733 135.833 37.36Z" fill="black"/>
<path d="M158.822 25.52C160.048 25.52 161.488 25.7467 163.142 26.2C164.662 26.6267 165.715 27.0533 166.302 27.48L164.822 33.04C162.822 31.6533 160.382 30.9467 157.502 30.92C156.808 30.8933 156.088 31.12 155.342 31.6C154.435 32.16 153.888 32.9067 153.702 33.84C153.435 35.1467 154.302 36.36 156.302 37.48C158.595 38.7867 160.182 39.9733 161.062 41.04C162.368 42.5867 162.942 44.5067 162.782 46.8C162.622 49.4667 161.342 51.8133 158.942 53.84C157.022 55.4667 154.568 56.28 151.582 56.28C149.955 56.28 148.288 56 146.582 55.44C145.808 55.2267 144.715 54.8667 143.302 54.36L144.782 48.76C147.022 49.9867 149.355 50.6 151.782 50.6C153.088 50.6 154.195 50.3333 155.102 49.8C156.195 49.1333 156.742 48.2 156.742 47C156.742 45.2933 155.888 43.96 154.182 43L151.062 41.2C150.342 40.7733 149.862 40.44 149.622 40.2C148.395 38.8667 147.782 37.4933 147.782 36.08C147.782 35.5733 147.848 35.0133 147.982 34.4C148.888 34.32 149.795 33.92 150.702 33.2C151.555 32.56 152.222 31.8133 152.702 30.96C151.662 32.1867 149.875 32.8 147.342 32.8C146.808 32.8 146.262 32.7733 145.702 32.72L146.702 28.88C147.182 28.9333 147.635 28.96 148.062 28.96C149.608 28.96 150.835 28.6267 151.742 27.96C153.902 26.3333 156.262 25.52 158.822 25.52ZM168.682 49.68C168.869 50.8267 169.256 51.5333 169.842 51.8C170.002 51.9067 170.202 52.0133 170.442 52.12C172.362 52.1467 174.029 51.44 175.442 50L174.042 55.36C172.922 56.08 171.722 56.44 170.442 56.44C169.322 56.44 168.202 56.16 167.082 55.6C164.629 54.4 163.402 52.1067 163.402 48.72C163.402 46.9067 163.829 45.12 164.682 43.36C165.616 41.44 166.909 39.9067 168.562 38.76C170.216 37.5867 171.882 37 173.562 37C174.496 37 175.362 37.1867 176.162 37.56C178.269 38.28 179.322 39.88 179.322 42.36C179.322 42.8133 179.282 43.2267 179.202 43.6C178.829 45.28 177.816 46.76 176.162 48.04C174.509 49.32 172.709 49.96 170.762 49.96C170.042 49.96 169.349 49.8667 168.682 49.68ZM169.002 46.2C169.509 46.3067 170.016 46.36 170.522 46.36C171.856 46.36 172.949 46.04 173.802 45.4C174.682 44.6267 175.122 43.8533 175.122 43.08C175.122 42.6533 174.962 42.24 174.642 41.84C174.322 41.44 173.949 41.24 173.522 41.24C172.589 41.24 171.642 41.8533 170.682 43.08C169.882 44.0933 169.322 45.1333 169.002 46.2ZM192.786 37.36L191.546 42.56C190.853 42.16 190.2 41.96 189.586 41.96C188.173 41.96 187.066 42.9333 186.266 44.88L183.266 56H177.746L182.826 37.12H188.346L188.026 38.32C189.333 37.4933 190.52 37.08 191.586 37.08C192.066 37.08 192.466 37.1733 192.786 37.36ZM194.912 56L194.952 55.92L193.872 37.04H199.112L199.752 47.8L206.072 37.08H211.352L200.232 56H194.912ZM218.589 37.04L213.629 56.04H208.109L213.069 37.04H218.589ZM217.309 33.96C216.403 33.9867 215.629 33.7867 214.989 33.36C214.349 32.9067 214.029 32.3467 214.029 31.68C214.029 31.0133 214.349 30.44 214.989 29.96C215.629 29.4533 216.403 29.1867 217.309 29.16C218.216 29.1333 218.989 29.3467 219.629 29.8C220.269 30.2267 220.589 30.7733 220.589 31.44C220.589 32.1067 220.269 32.6933 219.629 33.2C218.989 33.68 218.216 33.9333 217.309 33.96ZM231.728 44.16C230.955 42.5067 229.968 41.5733 228.768 41.36C228.635 41.3067 228.501 41.28 228.368 41.28C227.728 41.28 227.008 41.64 226.208 42.36C225.328 43.16 224.648 44.2 224.168 45.48C223.768 46.52 223.568 47.5467 223.568 48.56C223.568 49.28 223.675 49.9467 223.888 50.56C224.208 51.3867 224.675 51.8 225.288 51.8C226.888 51.8267 228.608 50.9067 230.448 49.04L228.968 54.8C227.475 55.7333 225.981 56.2 224.488 56.2C223.555 56.2 222.688 56 221.888 55.6C219.381 54.4 218.128 52.08 218.128 48.64C218.128 46.8 218.555 44.9867 219.408 43.2C220.341 41.3067 221.595 39.7867 223.168 38.64C224.768 37.4667 226.395 36.88 228.048 36.88C230.075 36.88 231.715 37.7333 232.968 39.44L231.728 44.16ZM237.12 49.68C237.307 50.8267 237.693 51.5333 238.28 51.8C238.44 51.9067 238.64 52.0133 238.88 52.12C240.8 52.1467 242.467 51.44 243.88 50L242.48 55.36C241.36 56.08 240.16 56.44 238.88 56.44C237.76 56.44 236.64 56.16 235.52 55.6C233.067 54.4 231.84 52.1067 231.84 48.72C231.84 46.9067 232.267 45.12 233.12 43.36C234.053 41.44 235.347 39.9067 237 38.76C238.653 37.5867 240.32 37 242 37C242.933 37 243.8 37.1867 244.6 37.56C246.707 38.28 247.76 39.88 247.76 42.36C247.76 42.8133 247.72 43.2267 247.64 43.6C247.267 45.28 246.253 46.76 244.6 48.04C242.947 49.32 241.147 49.96 239.2 49.96C238.48 49.96 237.787 49.8667 237.12 49.68ZM237.44 46.2C237.947 46.3067 238.453 46.36 238.96 46.36C240.293 46.36 241.387 46.04 242.24 45.4C243.12 44.6267 243.56 43.8533 243.56 43.08C243.56 42.6533 243.4 42.24 243.08 41.84C242.76 41.44 242.387 41.24 241.96 41.24C241.027 41.24 240.08 41.8533 239.12 43.08C238.32 44.0933 237.76 45.1333 237.44 46.2ZM260.928 42.44C259.408 41.3467 257.622 40.8 255.568 40.8C255.115 40.8 254.662 40.9467 254.208 41.24C253.755 41.5333 253.528 41.8933 253.528 42.32C253.528 42.7467 254.102 43.2533 255.248 43.84C256.848 44.64 257.915 45.2533 258.448 45.68C259.568 46.6133 260.128 47.7333 260.128 49.04C260.128 51.3067 259.368 53.1333 257.848 54.52C256.328 55.88 254.422 56.56 252.128 56.56C251.355 56.56 250.262 56.4 248.848 56.08C247.302 55.76 246.302 55.4267 245.848 55.08L246.968 50.64C248.435 51.4933 250.195 51.92 252.248 51.92C254.008 51.92 254.888 51.4267 254.888 50.44C254.888 49.6933 254.355 49.0267 253.288 48.44C252.248 47.8533 251.208 47.28 250.168 46.72C249.075 45.8933 248.528 44.8533 248.528 43.6C248.528 41.5467 249.328 39.8267 250.928 38.44C252.448 37.1333 254.248 36.48 256.328 36.48C258.702 36.48 260.608 36.9733 262.048 37.96L260.928 42.44Z" fill="#FD7402"/>
<g filter="url(#filter0_ii)">
<rect x="20.5" y="3.5" width="301" height="78" rx="19.5" stroke="#EEEEEE" stroke-width="7"/>
</g>
<defs>
<filter id="filter0_ii" x="15" y="-2" width="312" height="89" filterUnits="userSpaceOnUse" color-interpolation-filters="sRGB">
<feFlood flood-opacity="0" result="BackgroundImageFix"/>
<feBlend mode="normal" in="SourceGraphic" in2="BackgroundImageFix" result="shape"/>
<feColorMatrix in="SourceAlpha" type="matrix" values="0 0 0 0 0 0 0 0 0 0 0 0 0 0 0 0 0 0 127 0" result="hardAlpha"/>
<feOffset dx="4" dy="4"/>
<feGaussianBlur stdDeviation="1"/>
<feComposite in2="hardAlpha" operator="arithmetic" k2="-1" k3="1"/>
<feColorMatrix type="matrix" values="0 0 0 0 0.305882 0 0 0 0 0.305882 0 0 0 0 0.305882 0 0 0 0.5 0"/>
<feBlend mode="normal" in2="shape" result="effect1_innerShadow"/>
<feColorMatrix in="SourceAlpha" type="matrix" values="0 0 0 0 0 0 0 0 0 0 0 0 0 0 0 0 0 0 127 0" result="hardAlpha"/>
<feOffset dx="-4" dy="-4"/>
<feGaussianBlur stdDeviation="1"/>
<feComposite in2="hardAlpha" operator="arithmetic" k2="-1" k3="1"/>
<feColorMatrix type="matrix" values="0 0 0 0 1 0 0 0 0 1 0 0 0 0 1 0 0 0 0.3 0"/>
<feBlend mode="normal" in2="effect1_innerShadow" result="effect2_innerShadow"/>
</filter>
</defs>
</svg>
