<svg width="342" height="85" viewBox="0 0 342 85" fill="none" xmlns="http://www.w3.org/2000/svg">
<path d="M92.6841 30.04C91.3774 30.04 90.1774 30.5733 89.0841 31.64L87.8441 28.04C89.0974 26.7333 90.8974 26.04 93.2441 25.96C95.6974 25.9867 101.004 26 109.164 26L107.964 30.12H101.804L95.0441 56H89.1241L95.8841 30.08L92.6841 30.04ZM105.499 49.68C105.685 50.8267 106.072 51.5333 106.659 51.8C106.819 51.9067 107.019 52.0133 107.259 52.12C109.179 52.1467 110.845 51.44 112.259 50L110.859 55.36C109.739 56.08 108.539 56.44 107.259 56.44C106.139 56.44 105.019 56.16 103.899 55.6C101.445 54.4 100.219 52.1067 100.219 48.72C100.219 46.9067 100.645 45.12 101.499 43.36C102.432 41.44 103.725 39.9067 105.379 38.76C107.032 37.5867 108.699 37 110.379 37C111.312 37 112.179 37.1867 112.979 37.56C115.085 38.28 116.139 39.88 116.139 42.36C116.139 42.8133 116.099 43.2267 116.019 43.6C115.645 45.28 114.632 46.76 112.979 48.04C111.325 49.32 109.525 49.96 107.579 49.96C106.859 49.96 106.165 49.8667 105.499 49.68ZM105.819 46.2C106.325 46.3067 106.832 46.36 107.339 46.36C108.672 46.36 109.765 46.04 110.619 45.4C111.499 44.6267 111.939 43.8533 111.939 43.08C111.939 42.6533 111.779 42.24 111.459 41.84C111.139 41.44 110.765 41.24 110.339 41.24C109.405 41.24 108.459 41.8533 107.499 43.08C106.699 44.0933 106.139 45.1333 105.819 46.2ZM129.443 44.16C128.669 42.5067 127.683 41.5733 126.483 41.36C126.349 41.3067 126.216 41.28 126.083 41.28C125.443 41.28 124.723 41.64 123.923 42.36C123.043 43.16 122.363 44.2 121.883 45.48C121.483 46.52 121.283 47.5467 121.283 48.56C121.283 49.28 121.389 49.9467 121.603 50.56C121.923 51.3867 122.389 51.8 123.003 51.8C124.603 51.8267 126.323 50.9067 128.163 49.04L126.683 54.8C125.189 55.7333 123.696 56.2 122.203 56.2C121.269 56.2 120.403 56 119.603 55.6C117.096 54.4 115.843 52.08 115.843 48.64C115.843 46.8 116.269 44.9867 117.123 43.2C118.056 41.3067 119.309 39.7867 120.883 38.64C122.483 37.4667 124.109 36.88 125.763 36.88C127.789 36.88 129.429 37.7333 130.683 39.44L129.443 44.16ZM145.835 58.92C146.555 58.9467 147.115 58.6933 147.515 58.16L148.755 61.76C147.501 63.0933 145.701 63.8133 143.355 63.92C141.808 63.92 140.528 63.3733 139.515 62.28C138.688 61.3733 138.261 60.4133 138.235 59.4C138.235 59.6133 138.355 58.5067 138.595 56.08L141.915 43.28C141.941 43.1467 141.955 43.0133 141.955 42.88C141.955 42.4 141.755 42.04 141.355 41.8C141.168 41.6667 140.941 41.6 140.675 41.6C140.221 41.6 139.701 41.8133 139.115 42.24C138.501 42.7467 138.115 43.0933 137.955 43.28C137.555 43.6533 137.248 44.0667 137.035 44.52L133.995 56.04H128.475L135.915 27.68H141.475L138.675 38.32C140.141 37.4667 141.581 37.04 142.995 37.04C143.501 37.04 143.941 37.0933 144.315 37.2C146.475 38.1867 147.555 39.8267 147.555 42.12C147.555 42.5467 147.515 42.9333 147.435 43.28L144.115 56.08C144.088 57.2 144.248 57.9733 144.595 58.4C144.835 58.6933 145.248 58.8667 145.835 58.92Z" fill="#FD7402"/>
<path d="M172.044 25.52C173.271 25.52 174.711 25.7467 176.364 26.2C177.884 26.6267 178.938 27.0533 179.524 27.48L178.044 33.04C176.044 31.6533 173.604 30.9467 170.724 30.92C170.031 30.8933 169.311 31.12 168.564 31.6C167.658 32.16 167.111 32.9067 166.924 33.84C166.658 35.1467 167.524 36.36 169.524 37.48C171.818 38.7867 173.404 39.9733 174.284 41.04C175.591 42.5867 176.164 44.5067 176.004 46.8C175.844 49.4667 174.564 51.8133 172.164 53.84C170.244 55.4667 167.791 56.28 164.804 56.28C163.178 56.28 161.511 56 159.804 55.44C159.031 55.2267 157.938 54.8667 156.524 54.36L158.004 48.76C160.244 49.9867 162.578 50.6 165.004 50.6C166.311 50.6 167.418 50.3333 168.324 49.8C169.418 49.1333 169.964 48.2 169.964 47C169.964 45.2933 169.111 43.96 167.404 43L164.284 41.2C163.564 40.7733 163.084 40.44 162.844 40.2C161.618 38.8667 161.004 37.4933 161.004 36.08C161.004 35.5733 161.071 35.0133 161.204 34.4C162.111 34.32 163.018 33.92 163.924 33.2C164.778 32.56 165.444 31.8133 165.924 30.96C164.884 32.1867 163.098 32.8 160.564 32.8C160.031 32.8 159.484 32.7733 158.924 32.72L159.924 28.88C160.404 28.9333 160.858 28.96 161.284 28.96C162.831 28.96 164.058 28.6267 164.964 27.96C167.124 26.3333 169.484 25.52 172.044 25.52ZM182.545 56H177.025L180.865 41.2H178.345L179.425 37.08H181.945L184.105 28.88H189.625L187.505 37.08H190.985L189.865 41.2H186.425L182.545 56ZM191.817 55.96C189.657 55.0267 188.577 52.88 188.577 49.52C188.577 47.6533 188.977 45.7867 189.777 43.92C190.657 41.84 191.857 40.1467 193.377 38.84C194.897 37.5067 196.417 36.84 197.937 36.84C199.431 36.84 200.617 37.4533 201.497 38.68L201.937 37.04H207.337L203.857 50.48C203.804 50.6667 203.777 50.84 203.777 51C203.777 51.5333 204.084 51.8 204.697 51.8C205.044 51.8 205.431 51.72 205.857 51.56L204.857 55.08C203.471 56.0133 202.191 56.48 201.017 56.48C199.684 56.48 198.564 55.88 197.657 54.68C196.271 55.7467 194.897 56.28 193.537 56.28C192.924 56.28 192.351 56.1733 191.817 55.96ZM198.497 41.12C197.857 41.12 197.164 41.52 196.417 42.32C195.697 43.12 195.097 44.1733 194.617 45.48C194.164 46.68 193.937 47.84 193.937 48.96C193.937 50.7467 194.404 51.64 195.337 51.64C195.951 51.64 196.631 51.2133 197.377 50.36C198.124 49.5067 198.737 48.4133 199.217 47.08C199.697 45.88 199.937 44.7467 199.937 43.68C199.937 41.9733 199.457 41.12 198.497 41.12ZM221.279 44.16C220.505 42.5067 219.519 41.5733 218.319 41.36C218.185 41.3067 218.052 41.28 217.919 41.28C217.279 41.28 216.559 41.64 215.759 42.36C214.879 43.16 214.199 44.2 213.719 45.48C213.319 46.52 213.119 47.5467 213.119 48.56C213.119 49.28 213.225 49.9467 213.439 50.56C213.759 51.3867 214.225 51.8 214.839 51.8C216.439 51.8267 218.159 50.9067 219.999 49.04L218.519 54.8C217.025 55.7333 215.532 56.2 214.039 56.2C213.105 56.2 212.239 56 211.439 55.6C208.932 54.4 207.679 52.08 207.679 48.64C207.679 46.8 208.105 44.9867 208.959 43.2C209.892 41.3067 211.145 39.7867 212.719 38.64C214.319 37.4667 215.945 36.88 217.599 36.88C219.625 36.88 221.265 37.7333 222.519 39.44L221.279 44.16ZM233.951 63.64C232.404 63.64 231.217 63.08 230.391 61.96C229.777 61.1333 229.444 60.16 229.391 59.04C229.391 58.7467 229.457 58.1067 229.591 57.12C229.751 55.9467 229.831 55.0267 229.831 54.36C229.831 52.3067 229.177 50.8533 227.871 50L228.671 46.52C232.084 45.6667 233.937 44.32 234.231 42.48C234.124 41.44 233.631 40.92 232.751 40.92C232.164 40.92 231.431 41.1733 230.551 41.68C229.697 42.16 228.964 43.0533 228.351 44.36L225.271 56H220.231L227.751 27.6H232.791L229.991 38.2C231.431 37.32 232.844 36.8533 234.231 36.8C235.777 36.8 236.951 37.28 237.751 38.24C238.471 39.0933 238.764 40.0533 238.631 41.12C238.471 42.7467 238.137 44.0267 237.631 44.96C236.671 46.7733 235.004 48.1733 232.631 49.16C233.937 50.28 234.511 52.1467 234.351 54.76C234.297 55.24 234.271 55.6667 234.271 56.04C234.271 57.0267 234.444 57.6933 234.791 58.04C235.004 58.28 235.377 58.4267 235.911 58.48C236.604 58.48 237.177 58.1867 237.631 57.6L238.951 61.4C237.991 62.7867 236.324 63.5333 233.951 63.64ZM252.588 42.44C251.068 41.3467 249.282 40.8 247.228 40.8C246.775 40.8 246.322 40.9467 245.868 41.24C245.415 41.5333 245.188 41.8933 245.188 42.32C245.188 42.7467 245.762 43.2533 246.908 43.84C248.508 44.64 249.575 45.2533 250.108 45.68C251.228 46.6133 251.788 47.7333 251.788 49.04C251.788 51.3067 251.028 53.1333 249.508 54.52C247.988 55.88 246.082 56.56 243.788 56.56C243.015 56.56 241.922 56.4 240.508 56.08C238.962 55.76 237.962 55.4267 237.508 55.08L238.628 50.64C240.095 51.4933 241.855 51.92 243.908 51.92C245.668 51.92 246.548 51.4267 246.548 50.44C246.548 49.6933 246.015 49.0267 244.948 48.44C243.908 47.8533 242.868 47.28 241.828 46.72C240.735 45.8933 240.188 44.8533 240.188 43.6C240.188 41.5467 240.988 39.8267 242.588 38.44C244.108 37.1333 245.908 36.48 247.988 36.48C250.362 36.48 252.268 36.9733 253.708 37.96L252.588 42.44Z" fill="black"/>
<g filter="url(#filter0_ii)">
<rect x="20.5" y="3.5" width="301" height="78" rx="19.5" stroke="#EEEEEE" stroke-width="7"/>
</g>
<defs>
<filter id="filter0_ii" x="15" y="-2" width="312" height="89" filterUnits="userSpaceOnUse" color-interpolation-filters="sRGB">
<feFlood flood-opacity="0" result="BackgroundImageFix"/>
<feBlend mode="normal" in="SourceGraphic" in2="BackgroundImageFix" result="shape"/>
<feColorMatrix in="SourceAlpha" type="matrix" values="0 0 0 0 0 0 0 0 0 0 0 0 0 0 0 0 0 0 127 0" result="hardAlpha"/>
<feOffset dx="4" dy="4"/>
<feGaussianBlur stdDeviation="1"/>
<feComposite in2="hardAlpha" operator="arithmetic" k2="-1" k3="1"/>
<feColorMatrix type="matrix" values="0 0 0 0 0.305882 0 0 0 0 0.305882 0 0 0 0 0.305882 0 0 0 0.5 0"/>
<feBlend mode="normal" in2="shape" result="effect1_innerShadow"/>
<feColorMatrix in="SourceAlpha" type="matrix" values="0 0 0 0 0 0 0 0 0 0 0 0 0 0 0 0 0 0 127 0" result="hardAlpha"/>
<feOffset dx="-4" dy="-4"/>
<feGaussianBlur stdDeviation="1"/>
<feComposite in2="hardAlpha" operator="arithmetic" k2="-1" k3="1"/>
<feColorMatrix type="matrix" values="0 0 0 0 1 0 0 0 0 1 0 0 0 0 1 0 0 0 0.3 0"/>
<feBlend mode="normal" in2="effect1_innerShadow" result="effect2_innerShadow"/>
</filter>
</defs>
</svg>
